<?xml version="1.0" encoding="UTF-8" standalone="no"?>
<svg
   xmlns:dc="http://purl.org/dc/elements/1.1/"
   xmlns:cc="http://creativecommons.org/ns#"
   xmlns:rdf="http://www.w3.org/1999/02/22-rdf-syntax-ns#"
   xmlns:svg="http://www.w3.org/2000/svg"
   xmlns="http://www.w3.org/2000/svg"
   xmlns:sodipodi="http://sodipodi.sourceforge.net/DTD/sodipodi-0.dtd"
   xmlns:inkscape="http://www.inkscape.org/namespaces/inkscape"
   width="537.8045"
   height="334.14862"
   style="overflow:hidden"
   id="svg2"
   version="1.1"
   inkscape:version="0.48.3.1 r9886"
   sodipodi:docname="dynamic.svg">
  <metadata
     id="metadata262">
    <rdf:RDF>
      <cc:Work
         rdf:about="">
        <dc:format>image/svg+xml</dc:format>
        <dc:type
           rdf:resource="http://purl.org/dc/dcmitype/StillImage" />
      </cc:Work>
    </rdf:RDF>
  </metadata>
  <sodipodi:namedview
     pagecolor="#ffffff"
     bordercolor="#666666"
     borderopacity="1"
     objecttolerance="10"
     gridtolerance="10"
     guidetolerance="10"
     inkscape:pageopacity="0"
     inkscape:pageshadow="2"
     inkscape:window-width="1859"
     inkscape:window-height="1056"
     id="namedview260"
     showgrid="false"
     fit-margin-top="0"
     fit-margin-left="0"
     fit-margin-right="0"
     fit-margin-bottom="0"
     inkscape:zoom="0.97333333"
     inkscape:cx="585.29649"
     inkscape:cy="-61.83919"
     inkscape:window-x="61"
     inkscape:window-y="24"
     inkscape:window-maximized="1"
     inkscape:current-layer="svg2" />
  <defs
     id="defs">
    <clipPath
       id="_ABSTRACT_RENDERER_ID_502">
      <rect
         x="115"
         y="71"
         width="371"
         height="229"
         id="rect6" />
    </clipPath>
  </defs>
  <g
     id="g10"
     transform="translate(-52.195508,-14.939453)">
    <text
       x="115"
       y="29.5"
       font-size="20"
       font-weight="bold"
       id="text12"
       style="font-size:20px;font-weight:bold;text-anchor:start;fill:#000000;stroke:none;font-family:Arial">Dynamic RW Sets, 4 Threads, 64 Ops</text>
    <text
       x="115"
       y="55.5"
       font-size="20"
       font-weight="bold"
       id="text14"
       style="font-size:20px;font-weight:bold;text-anchor:start;fill:#000000;stroke:none;font-family:Arial">Per Txn</text>
  </g>
  <g
     id="g16"
     transform="translate(-48.195508,-14.939453)">
    <rect
       x="500"
       y="71"
       width="86"
       height="188"
       id="rect18"
       style="fill:#ffffff;fill-opacity:0;stroke:none" />
    <g
       id="g20">
      <rect
         x="500"
         y="71"
         width="86"
         height="14"
         id="rect22"
         style="fill:#ffffff;fill-opacity:0;stroke:none" />
      <g
         id="g24">
        <text
           x="519"
           y="82.900002"
           font-size="14"
           id="text26"
           style="font-size:14px;text-anchor:start;fill:#222222;stroke:none;font-family:Arial">HLE</text>
      </g>
      <rect
         x="500"
         y="71"
         width="14"
         height="14"
         id="rect28"
         style="fill:#3366cc;stroke:none" />
    </g>
    <g
       id="g30">
      <rect
         x="500"
         y="94"
         width="86"
         height="14"
         id="rect32"
         style="fill:#ffffff;fill-opacity:0;stroke:none" />
      <g
         id="g34">
        <text
           x="519"
           y="105.9"
           font-size="14"
           id="text36"
           style="font-size:14px;text-anchor:start;fill:#222222;stroke:none;font-family:Arial">RTM</text>
      </g>
      <rect
         x="500"
         y="94"
         width="14"
         height="14"
         id="rect38"
         style="fill:#dc3912;stroke:none" />
    </g>
    <g
       id="g40">
      <rect
         x="500"
         y="117"
         width="86"
         height="14"
         id="rect42"
         style="fill:#ffffff;fill-opacity:0;stroke:none" />
      <g
         id="g44">
        <text
           x="519"
           y="128.89999"
           font-size="14"
           id="text46"
           style="font-size:14px;text-anchor:start;fill:#222222;stroke:none;font-family:Arial">Lock table</text>
      </g>
      <rect
         x="500"
         y="117"
         width="14"
         height="14"
         id="rect48"
         style="fill:#ff9900;stroke:none" />
    </g>
    <g
       id="g50">
      <rect
         x="500"
         y="140"
         width="86"
         height="14"
         id="rect52"
         style="fill:#ffffff;fill-opacity:0;stroke:none" />
      <g
         id="g54">
        <text
           x="519"
           y="151.89999"
           font-size="14"
           id="text56"
           style="font-size:14px;text-anchor:start;fill:#222222;stroke:none;font-family:Arial">Spin</text>
      </g>
      <rect
         x="500"
         y="140"
         width="14"
         height="14"
         id="rect58"
         style="fill:#109618;stroke:none" />
    </g>
    <g
       id="g60">
      <rect
         x="500"
         y="163"
         width="86"
         height="32"
         id="rect62"
         style="fill:#ffffff;fill-opacity:0;stroke:none" />
      <g
         id="g64">
        <text
           x="519"
           y="174.89999"
           font-size="14"
           id="text66"
           style="font-size:14px;text-anchor:start;fill:#222222;stroke:none;font-family:Arial">Simple</text>
        <text
           x="519"
           y="192.89999"
           font-size="14"
           id="text68"
           style="font-size:14px;text-anchor:start;fill:#222222;stroke:none;font-family:Arial">spin</text>
      </g>
      <rect
         x="500"
         y="163"
         width="14"
         height="14"
         id="rect70"
         style="fill:#990099;stroke:none" />
    </g>
    <g
       id="g72">
      <rect
         x="500"
         y="204"
         width="86"
         height="32"
         id="rect74"
         style="fill:#ffffff;fill-opacity:0;stroke:none" />
      <g
         id="g76">
        <text
           x="519"
           y="215.89999"
           font-size="14"
           id="text78"
           style="font-size:14px;text-anchor:start;fill:#222222;stroke:none;font-family:Arial">Simple</text>
        <text
           x="519"
           y="233.89999"
           font-size="14"
           id="text80"
           style="font-size:14px;text-anchor:start;fill:#222222;stroke:none;font-family:Arial">RTM</text>
      </g>
      <rect
         x="500"
         y="204"
         width="14"
         height="14"
         id="rect82"
         style="fill:#0099c6;stroke:none" />
    </g>
    <g
       id="g84">
      <rect
         x="500"
         y="245"
         width="86"
         height="14"
         id="rect86"
         style="fill:#ffffff;fill-opacity:0;stroke:none" />
      <g
         id="g88">
        <text
           x="519"
           y="256.89999"
           font-size="14"
           id="text90"
           style="font-size:14px;text-anchor:start;fill:#222222;stroke:none;font-family:Arial">Baseline</text>
      </g>
      <rect
         x="500"
         y="245"
         width="14"
         height="14"
         id="rect92"
         style="fill:#dd4477;stroke:none" />
    </g>
  </g>
  <g
     id="g94"
     transform="translate(-52.195508,-14.939453)">
    <rect
       x="115"
       y="71"
       width="371"
       height="229"
       id="rect96"
       style="fill:#ffffff;fill-opacity:0;stroke:none" />
    <g
       clip-path="url(https://docs.google.com/spreadsheet/ccc?key=0AmZyP9czufnudDBOWXg5WUNKT1FiWDI3MHN1RkdHS2c&amp;usp=drive_web#_ABSTRACT_RENDERER_ID_502)"
       id="g98">
      <g
         id="g100">
        <rect
           x="115"
           y="299"
           width="371"
           height="1"
           id="rect102"
           style="fill:#cccccc;stroke:none" />
        <rect
           x="115"
           y="242"
           width="371"
           height="1"
           id="rect104"
           style="fill:#cccccc;stroke:none" />
        <rect
           x="115"
           y="185"
           width="371"
           height="1"
           id="rect106"
           style="fill:#cccccc;stroke:none" />
        <rect
           x="115"
           y="128"
           width="371"
           height="1"
           id="rect108"
           style="fill:#cccccc;stroke:none" />
        <rect
           x="115"
           y="71"
           width="371"
           height="1"
           id="rect110"
           style="fill:#cccccc;stroke:none" />
      </g>
      <g
         id="g112">
        <rect
           x="115"
           y="71"
           width="1"
           height="229"
           id="rect114"
           style="fill:#333333;stroke:none" />
        <rect
           x="115"
           y="299"
           width="371"
           height="1"
           id="rect116"
           style="fill:#333333;stroke:none" />
      </g>
      <g
         id="g118">
        <path
           d="m 115.5,115.67737 24.66667,3.20616 49.33333,1.53016 98.66667,2.48473 197.33333,6.8096"
           id="path120"
           inkscape:connector-curvature="0"
           style="fill:none;stroke:#3366cc;stroke-width:2" />
        <path
           d="m 115.5,137.12144 24.66667,0.73378 49.33333,5.8044 98.66667,3.1332 197.33333,0.31407"
           id="path122"
           inkscape:connector-curvature="0"
           style="fill:none;stroke:#dc3912;stroke-width:2" />
        <path
           d="M 115.5,107.71048 140.16667,123.54081 189.5,170.62034 288.16667,229.68345 485.5,275.12547"
           id="path124"
           inkscape:connector-curvature="0"
           style="fill:none;stroke:#ff9900;stroke-width:2" />
        <path
           d="m 115.5,111.19233 24.66667,11.6108 49.33333,46.058 98.66667,58.07217 L 485.5,274.95105"
           id="path126"
           inkscape:connector-curvature="0"
           style="fill:none;stroke:#109618;stroke-width:2" />
        <path
           d="m 115.5,116.06849 24.66667,1.53216 49.33333,1.29912 98.66667,7.33448 197.33333,2.70151"
           id="path128"
           inkscape:connector-curvature="0"
           style="fill:none;stroke:#990099;stroke-width:2" />
        <path
           d="m 115.5,138.21394 24.66667,1.78742 49.33333,-1.17135 98.66667,10.56505 197.33333,3.75535"
           id="path130"
           inkscape:connector-curvature="0"
           style="fill:none;stroke:#0099c6;stroke-width:2" />
        <path
           d="m 115.5,150.91097 24.66667,-2.58001 49.33333,10.89546 98.66667,6.48935 L 485.5,177.27385"
           id="path132"
           inkscape:connector-curvature="0"
           style="fill:none;stroke:#dd4477;stroke-width:2" />
      </g>
    </g>
    <g
       id="g134">
      <circle
         cx="115.5"
         cy="115.67738"
         r="2.5"
         id="circle136"
         sodipodi:cx="115.5"
         sodipodi:cy="115.67738"
         sodipodi:rx="2.5"
         sodipodi:ry="2.5"
         style="fill:#3366cc;stroke:none"
         d="m 118,115.67738 c 0,1.38072 -1.11929,2.5 -2.5,2.5 -1.38071,0 -2.5,-1.11928 -2.5,-2.5 0,-1.38071 1.11929,-2.5 2.5,-2.5 1.38071,0 2.5,1.11929 2.5,2.5 z" />
      <circle
         cx="140.16667"
         cy="118.88353"
         r="2.5"
         id="circle138"
         sodipodi:cx="140.16667"
         sodipodi:cy="118.88353"
         sodipodi:rx="2.5"
         sodipodi:ry="2.5"
         style="fill:#3366cc;stroke:none"
         d="m 142.66667,118.88353 c 0,1.38071 -1.11929,2.5 -2.5,2.5 -1.38071,0 -2.5,-1.11929 -2.5,-2.5 0,-1.38071 1.11929,-2.5 2.5,-2.5 1.38071,0 2.5,1.11929 2.5,2.5 z" />
      <circle
         cx="189.5"
         cy="120.4137"
         r="2.5"
         id="circle140"
         sodipodi:cx="189.5"
         sodipodi:cy="120.4137"
         sodipodi:rx="2.5"
         sodipodi:ry="2.5"
         style="fill:#3366cc;stroke:none"
         d="m 192,120.4137 c 0,1.38071 -1.11929,2.5 -2.5,2.5 -1.38071,0 -2.5,-1.11929 -2.5,-2.5 0,-1.38072 1.11929,-2.5 2.5,-2.5 1.38071,0 2.5,1.11928 2.5,2.5 z" />
      <circle
         cx="288.16666"
         cy="122.89842"
         r="2.5"
         id="circle142"
         sodipodi:cx="288.16666"
         sodipodi:cy="122.89842"
         sodipodi:rx="2.5"
         sodipodi:ry="2.5"
         style="fill:#3366cc;stroke:none"
         d="m 290.66666,122.89842 c 0,1.38071 -1.11929,2.5 -2.5,2.5 -1.38072,0 -2.5,-1.11929 -2.5,-2.5 0,-1.38071 1.11928,-2.5 2.5,-2.5 1.38071,0 2.5,1.11929 2.5,2.5 z" />
      <circle
         cx="485.5"
         cy="129.70802"
         r="2.5"
         id="circle144"
         sodipodi:cx="485.5"
         sodipodi:cy="129.70802"
         sodipodi:rx="2.5"
         sodipodi:ry="2.5"
         style="fill:#3366cc;stroke:none"
         d="m 488,129.70802 c 0,1.38071 -1.11929,2.5 -2.5,2.5 -1.38071,0 -2.5,-1.11929 -2.5,-2.5 0,-1.38071 1.11929,-2.5 2.5,-2.5 1.38071,0 2.5,1.11929 2.5,2.5 z" />
      <circle
         cx="115.5"
         cy="137.12144"
         r="2.5"
         id="circle146"
         sodipodi:cx="115.5"
         sodipodi:cy="137.12144"
         sodipodi:rx="2.5"
         sodipodi:ry="2.5"
         style="fill:#dc3912;stroke:none"
         d="m 118,137.12144 c 0,1.38072 -1.11929,2.5 -2.5,2.5 -1.38071,0 -2.5,-1.11928 -2.5,-2.5 0,-1.38071 1.11929,-2.5 2.5,-2.5 1.38071,0 2.5,1.11929 2.5,2.5 z" />
      <circle
         cx="140.16667"
         cy="137.85522"
         r="2.5"
         id="circle148"
         sodipodi:cx="140.16667"
         sodipodi:cy="137.85522"
         sodipodi:rx="2.5"
         sodipodi:ry="2.5"
         style="fill:#dc3912;stroke:none"
         d="m 142.66667,137.85522 c 0,1.38072 -1.11929,2.5 -2.5,2.5 -1.38071,0 -2.5,-1.11928 -2.5,-2.5 0,-1.38071 1.11929,-2.5 2.5,-2.5 1.38071,0 2.5,1.11929 2.5,2.5 z" />
      <circle
         cx="189.5"
         cy="143.65962"
         r="2.5"
         id="circle150"
         sodipodi:cx="189.5"
         sodipodi:cy="143.65962"
         sodipodi:rx="2.5"
         sodipodi:ry="2.5"
         style="fill:#dc3912;stroke:none"
         d="m 192,143.65962 c 0,1.38071 -1.11929,2.5 -2.5,2.5 -1.38071,0 -2.5,-1.11929 -2.5,-2.5 0,-1.38071 1.11929,-2.5 2.5,-2.5 1.38071,0 2.5,1.11929 2.5,2.5 z" />
      <circle
         cx="288.16666"
         cy="146.79282"
         r="2.5"
         id="circle152"
         sodipodi:cx="288.16666"
         sodipodi:cy="146.79282"
         sodipodi:rx="2.5"
         sodipodi:ry="2.5"
         style="fill:#dc3912;stroke:none"
         d="m 290.66666,146.79282 c 0,1.38071 -1.11929,2.5 -2.5,2.5 -1.38072,0 -2.5,-1.11929 -2.5,-2.5 0,-1.38072 1.11928,-2.5 2.5,-2.5 1.38071,0 2.5,1.11928 2.5,2.5 z" />
      <circle
         cx="485.5"
         cy="147.10689"
         r="2.5"
         id="circle154"
         sodipodi:cx="485.5"
         sodipodi:cy="147.10689"
         sodipodi:rx="2.5"
         sodipodi:ry="2.5"
         style="fill:#dc3912;stroke:none"
         d="m 488,147.10689 c 0,1.38071 -1.11929,2.5 -2.5,2.5 -1.38071,0 -2.5,-1.11929 -2.5,-2.5 0,-1.38071 1.11929,-2.5 2.5,-2.5 1.38071,0 2.5,1.11929 2.5,2.5 z" />
      <circle
         cx="115.5"
         cy="107.71049"
         r="2.5"
         id="circle156"
         sodipodi:cx="115.5"
         sodipodi:cy="107.71049"
         sodipodi:rx="2.5"
         sodipodi:ry="2.5"
         style="fill:#ff9900;stroke:none"
         d="m 118,107.71049 c 0,1.38071 -1.11929,2.5 -2.5,2.5 -1.38071,0 -2.5,-1.11929 -2.5,-2.5 0,-1.38071 1.11929,-2.5 2.5,-2.5 1.38071,0 2.5,1.11929 2.5,2.5 z" />
      <circle
         cx="140.16667"
         cy="123.54081"
         r="2.5"
         id="circle158"
         sodipodi:cx="140.16667"
         sodipodi:cy="123.54081"
         sodipodi:rx="2.5"
         sodipodi:ry="2.5"
         style="fill:#ff9900;stroke:none"
         d="m 142.66667,123.54081 c 0,1.38071 -1.11929,2.5 -2.5,2.5 -1.38071,0 -2.5,-1.11929 -2.5,-2.5 0,-1.38071 1.11929,-2.5 2.5,-2.5 1.38071,0 2.5,1.11929 2.5,2.5 z" />
      <circle
         cx="189.5"
         cy="170.62035"
         r="2.5"
         id="circle160"
         sodipodi:cx="189.5"
         sodipodi:cy="170.62035"
         sodipodi:rx="2.5"
         sodipodi:ry="2.5"
         style="fill:#ff9900;stroke:none"
         d="m 192,170.62035 c 0,1.38071 -1.11929,2.5 -2.5,2.5 -1.38071,0 -2.5,-1.11929 -2.5,-2.5 0,-1.38072 1.11929,-2.5 2.5,-2.5 1.38071,0 2.5,1.11928 2.5,2.5 z" />
      <circle
         cx="288.16666"
         cy="229.68346"
         r="2.5"
         id="circle162"
         sodipodi:cx="288.16666"
         sodipodi:cy="229.68346"
         sodipodi:rx="2.5"
         sodipodi:ry="2.5"
         style="fill:#ff9900;stroke:none"
         d="m 290.66666,229.68346 c 0,1.38071 -1.11929,2.5 -2.5,2.5 -1.38072,0 -2.5,-1.11929 -2.5,-2.5 0,-1.38072 1.11928,-2.5 2.5,-2.5 1.38071,0 2.5,1.11928 2.5,2.5 z" />
      <circle
         cx="485.5"
         cy="275.12546"
         r="2.5"
         id="circle164"
         sodipodi:cx="485.5"
         sodipodi:cy="275.12546"
         sodipodi:rx="2.5"
         sodipodi:ry="2.5"
         style="fill:#ff9900;stroke:none"
         d="m 488,275.12546 c 0,1.38071 -1.11929,2.5 -2.5,2.5 -1.38071,0 -2.5,-1.11929 -2.5,-2.5 0,-1.38071 1.11929,-2.5 2.5,-2.5 1.38071,0 2.5,1.11929 2.5,2.5 z" />
      <circle
         cx="115.5"
         cy="111.19233"
         r="2.5"
         id="circle166"
         sodipodi:cx="115.5"
         sodipodi:cy="111.19233"
         sodipodi:rx="2.5"
         sodipodi:ry="2.5"
         style="fill:#109618;stroke:none"
         d="m 118,111.19233 c 0,1.38071 -1.11929,2.5 -2.5,2.5 -1.38071,0 -2.5,-1.11929 -2.5,-2.5 0,-1.38071 1.11929,-2.5 2.5,-2.5 1.38071,0 2.5,1.11929 2.5,2.5 z" />
      <circle
         cx="140.16667"
         cy="122.80314"
         r="2.5"
         id="circle168"
         sodipodi:cx="140.16667"
         sodipodi:cy="122.80314"
         sodipodi:rx="2.5"
         sodipodi:ry="2.5"
         style="fill:#109618;stroke:none"
         d="m 142.66667,122.80314 c 0,1.38071 -1.11929,2.5 -2.5,2.5 -1.38071,0 -2.5,-1.11929 -2.5,-2.5 0,-1.38071 1.11929,-2.5 2.5,-2.5 1.38071,0 2.5,1.11929 2.5,2.5 z" />
      <circle
         cx="189.5"
         cy="168.86113"
         r="2.5"
         id="circle170"
         sodipodi:cx="189.5"
         sodipodi:cy="168.86113"
         sodipodi:rx="2.5"
         sodipodi:ry="2.5"
         style="fill:#109618;stroke:none"
         d="m 192,168.86113 c 0,1.38071 -1.11929,2.5 -2.5,2.5 -1.38071,0 -2.5,-1.11929 -2.5,-2.5 0,-1.38071 1.11929,-2.5 2.5,-2.5 1.38071,0 2.5,1.11929 2.5,2.5 z" />
      <circle
         cx="288.16666"
         cy="226.9333"
         r="2.5"
         id="circle172"
         sodipodi:cx="288.16666"
         sodipodi:cy="226.9333"
         sodipodi:rx="2.5"
         sodipodi:ry="2.5"
         style="fill:#109618;stroke:none"
         d="m 290.66666,226.9333 c 0,1.38072 -1.11929,2.5 -2.5,2.5 -1.38072,0 -2.5,-1.11928 -2.5,-2.5 0,-1.38071 1.11928,-2.5 2.5,-2.5 1.38071,0 2.5,1.11929 2.5,2.5 z" />
      <circle
         cx="485.5"
         cy="274.95105"
         r="2.5"
         id="circle174"
         sodipodi:cx="485.5"
         sodipodi:cy="274.95105"
         sodipodi:rx="2.5"
         sodipodi:ry="2.5"
         style="fill:#109618;stroke:none"
         d="m 488,274.95105 c 0,1.38071 -1.11929,2.5 -2.5,2.5 -1.38071,0 -2.5,-1.11929 -2.5,-2.5 0,-1.38071 1.11929,-2.5 2.5,-2.5 1.38071,0 2.5,1.11929 2.5,2.5 z" />
      <circle
         cx="115.5"
         cy="116.06849"
         r="2.5"
         id="circle176"
         sodipodi:cx="115.5"
         sodipodi:cy="116.06849"
         sodipodi:rx="2.5"
         sodipodi:ry="2.5"
         style="fill:#990099;stroke:none"
         d="m 118,116.06849 c 0,1.38071 -1.11929,2.5 -2.5,2.5 -1.38071,0 -2.5,-1.11929 -2.5,-2.5 0,-1.38071 1.11929,-2.5 2.5,-2.5 1.38071,0 2.5,1.11929 2.5,2.5 z" />
      <circle
         cx="140.16667"
         cy="117.60065"
         r="2.5"
         id="circle178"
         sodipodi:cx="140.16667"
         sodipodi:cy="117.60065"
         sodipodi:rx="2.5"
         sodipodi:ry="2.5"
         style="fill:#990099;stroke:none"
         d="m 142.66667,117.60065 c 0,1.38071 -1.11929,2.5 -2.5,2.5 -1.38071,0 -2.5,-1.11929 -2.5,-2.5 0,-1.38071 1.11929,-2.5 2.5,-2.5 1.38071,0 2.5,1.11929 2.5,2.5 z" />
      <circle
         cx="189.5"
         cy="118.89977"
         r="2.5"
         id="circle180"
         sodipodi:cx="189.5"
         sodipodi:cy="118.89977"
         sodipodi:rx="2.5"
         sodipodi:ry="2.5"
         style="fill:#990099;stroke:none"
         d="m 192,118.89977 c 0,1.38071 -1.11929,2.5 -2.5,2.5 -1.38071,0 -2.5,-1.11929 -2.5,-2.5 0,-1.38071 1.11929,-2.5 2.5,-2.5 1.38071,0 2.5,1.11929 2.5,2.5 z" />
      <circle
         cx="288.16666"
         cy="126.23425"
         r="2.5"
         id="circle182"
         sodipodi:cx="288.16666"
         sodipodi:cy="126.23425"
         sodipodi:rx="2.5"
         sodipodi:ry="2.5"
         style="fill:#990099;stroke:none"
         d="m 290.66666,126.23425 c 0,1.38071 -1.11929,2.5 -2.5,2.5 -1.38072,0 -2.5,-1.11929 -2.5,-2.5 0,-1.38071 1.11928,-2.5 2.5,-2.5 1.38071,0 2.5,1.11929 2.5,2.5 z" />
      <circle
         cx="485.5"
         cy="128.93576"
         r="2.5"
         id="circle184"
         sodipodi:cx="485.5"
         sodipodi:cy="128.93576"
         sodipodi:rx="2.5"
         sodipodi:ry="2.5"
         style="fill:#990099;stroke:none"
         d="m 488,128.93576 c 0,1.38071 -1.11929,2.5 -2.5,2.5 -1.38071,0 -2.5,-1.11929 -2.5,-2.5 0,-1.38071 1.11929,-2.5 2.5,-2.5 1.38071,0 2.5,1.11929 2.5,2.5 z" />
      <circle
         cx="115.5"
         cy="138.21394"
         r="2.5"
         id="circle186"
         sodipodi:cx="115.5"
         sodipodi:cy="138.21394"
         sodipodi:rx="2.5"
         sodipodi:ry="2.5"
         style="fill:#0099c6;stroke:none"
         d="m 118,138.21394 c 0,1.38072 -1.11929,2.5 -2.5,2.5 -1.38071,0 -2.5,-1.11928 -2.5,-2.5 0,-1.38071 1.11929,-2.5 2.5,-2.5 1.38071,0 2.5,1.11929 2.5,2.5 z" />
      <circle
         cx="140.16667"
         cy="140.00136"
         r="2.5"
         id="circle188"
         sodipodi:cx="140.16667"
         sodipodi:cy="140.00136"
         sodipodi:rx="2.5"
         sodipodi:ry="2.5"
         style="fill:#0099c6;stroke:none"
         d="m 142.66667,140.00136 c 0,1.38071 -1.11929,2.5 -2.5,2.5 -1.38071,0 -2.5,-1.11929 -2.5,-2.5 0,-1.38071 1.11929,-2.5 2.5,-2.5 1.38071,0 2.5,1.11929 2.5,2.5 z" />
      <circle
         cx="189.5"
         cy="138.83002"
         r="2.5"
         id="circle190"
         sodipodi:cx="189.5"
         sodipodi:cy="138.83002"
         sodipodi:rx="2.5"
         sodipodi:ry="2.5"
         style="fill:#0099c6;stroke:none"
         d="m 192,138.83002 c 0,1.38071 -1.11929,2.5 -2.5,2.5 -1.38071,0 -2.5,-1.11929 -2.5,-2.5 0,-1.38071 1.11929,-2.5 2.5,-2.5 1.38071,0 2.5,1.11929 2.5,2.5 z" />
      <circle
         cx="288.16666"
         cy="149.39507"
         r="2.5"
         id="circle192"
         sodipodi:cx="288.16666"
         sodipodi:cy="149.39507"
         sodipodi:rx="2.5"
         sodipodi:ry="2.5"
         style="fill:#0099c6;stroke:none"
         d="m 290.66666,149.39507 c 0,1.38071 -1.11929,2.5 -2.5,2.5 -1.38072,0 -2.5,-1.11929 -2.5,-2.5 0,-1.38072 1.11928,-2.5 2.5,-2.5 1.38071,0 2.5,1.11928 2.5,2.5 z" />
      <circle
         cx="485.5"
         cy="153.15041"
         r="2.5"
         id="circle194"
         sodipodi:cx="485.5"
         sodipodi:cy="153.15041"
         sodipodi:rx="2.5"
         sodipodi:ry="2.5"
         style="fill:#0099c6;stroke:none"
         d="m 488,153.15041 c 0,1.38071 -1.11929,2.5 -2.5,2.5 -1.38071,0 -2.5,-1.11929 -2.5,-2.5 0,-1.38072 1.11929,-2.5 2.5,-2.5 1.38071,0 2.5,1.11928 2.5,2.5 z" />
      <circle
         cx="115.5"
         cy="150.91098"
         r="2.5"
         id="circle196"
         sodipodi:cx="115.5"
         sodipodi:cy="150.91098"
         sodipodi:rx="2.5"
         sodipodi:ry="2.5"
         style="fill:#dd4477;stroke:none"
         d="m 118,150.91098 c 0,1.38071 -1.11929,2.5 -2.5,2.5 -1.38071,0 -2.5,-1.11929 -2.5,-2.5 0,-1.38071 1.11929,-2.5 2.5,-2.5 1.38071,0 2.5,1.11929 2.5,2.5 z" />
      <circle
         cx="140.16667"
         cy="148.33096"
         r="2.5"
         id="circle198"
         sodipodi:cx="140.16667"
         sodipodi:cy="148.33096"
         sodipodi:rx="2.5"
         sodipodi:ry="2.5"
         style="fill:#dd4477;stroke:none"
         d="m 142.66667,148.33096 c 0,1.38072 -1.11929,2.5 -2.5,2.5 -1.38071,0 -2.5,-1.11928 -2.5,-2.5 0,-1.38071 1.11929,-2.5 2.5,-2.5 1.38071,0 2.5,1.11929 2.5,2.5 z" />
      <circle
         cx="189.5"
         cy="159.22643"
         r="2.5"
         id="circle200"
         sodipodi:cx="189.5"
         sodipodi:cy="159.22643"
         sodipodi:rx="2.5"
         sodipodi:ry="2.5"
         style="fill:#dd4477;stroke:none"
         d="m 192,159.22643 c 0,1.38071 -1.11929,2.5 -2.5,2.5 -1.38071,0 -2.5,-1.11929 -2.5,-2.5 0,-1.38072 1.11929,-2.5 2.5,-2.5 1.38071,0 2.5,1.11928 2.5,2.5 z" />
      <circle
         cx="288.16666"
         cy="165.71577"
         r="2.5"
         id="circle202"
         sodipodi:cx="288.16666"
         sodipodi:cy="165.71577"
         sodipodi:rx="2.5"
         sodipodi:ry="2.5"
         style="fill:#dd4477;stroke:none"
         d="m 290.66666,165.71577 c 0,1.38072 -1.11929,2.5 -2.5,2.5 -1.38072,0 -2.5,-1.11928 -2.5,-2.5 0,-1.38071 1.11928,-2.5 2.5,-2.5 1.38071,0 2.5,1.11929 2.5,2.5 z" />
      <circle
         cx="485.5"
         cy="177.27385"
         r="2.5"
         id="circle204"
         sodipodi:cx="485.5"
         sodipodi:cy="177.27385"
         sodipodi:rx="2.5"
         sodipodi:ry="2.5"
         style="fill:#dd4477;stroke:none"
         d="m 488,177.27385 c 0,1.38071 -1.11929,2.5 -2.5,2.5 -1.38071,0 -2.5,-1.11929 -2.5,-2.5 0,-1.38071 1.11929,-2.5 2.5,-2.5 1.38071,0 2.5,1.11929 2.5,2.5 z" />
    </g>
    <g
       id="g206">
      <g
         id="g208">
        <text
           x="115.5"
           y="317.20001"
           font-size="12"
           id="text210"
           style="font-size:12px;text-anchor:middle;fill:#444444;stroke:none;font-family:Arial">2</text>
      </g>
      <g
         id="g212">
        <text
           x="201.83333"
           y="317.20001"
           font-size="12"
           id="text214"
           style="font-size:12px;text-anchor:middle;fill:#444444;stroke:none;font-family:Arial">9</text>
      </g>
      <g
         id="g216">
        <text
           x="288.16666"
           y="317.20001"
           font-size="12"
           id="text218"
           style="font-size:12px;text-anchor:middle;fill:#444444;stroke:none;font-family:Arial">16</text>
      </g>
      <g
         id="g220">
        <text
           x="374.5"
           y="317.20001"
           font-size="12"
           id="text222"
           style="font-size:12px;text-anchor:middle;fill:#444444;stroke:none;font-family:Arial">23</text>
      </g>
      <g
         id="g224">
        <text
           x="460.83334"
           y="317.20001"
           font-size="12"
           id="text226"
           style="font-size:12px;text-anchor:middle;fill:#444444;stroke:none;font-family:Arial">30</text>
      </g>
      <g
         id="g228">
        <text
           x="103"
           y="303.70001"
           font-size="12"
           id="text230"
           style="font-size:12px;text-anchor:end;fill:#444444;stroke:none;font-family:Arial">0</text>
      </g>
      <g
         id="g232">
        <text
           x="103"
           y="246.7"
           font-size="12"
           id="text234"
           style="font-size:12px;text-anchor:end;fill:#444444;stroke:none;font-family:Arial">0.6</text>
      </g>
      <g
         id="g236">
        <text
           x="103"
           y="189.7"
           font-size="12"
           id="text238"
           style="font-size:12px;text-anchor:end;fill:#444444;stroke:none;font-family:Arial">1.2</text>
      </g>
      <g
         id="g240">
        <text
           x="103"
           y="132.7"
           font-size="12"
           id="text242"
           style="font-size:12px;text-anchor:end;fill:#444444;stroke:none;font-family:Arial">1.8</text>
      </g>
      <g
         id="g244">
        <text
           x="103"
           y="75.699997"
           font-size="12"
           id="text246"
           style="font-size:12px;text-anchor:end;fill:#444444;stroke:none;font-family:Arial">2.4</text>
      </g>
    </g>
  </g>
  <g
     id="g248"
     transform="translate(-52.195508,-14.939453)">
    <g
       id="g250"
       transform="translate(0,-6)">
      <text
         x="300.5"
         y="351.29999"
         font-size="18"
         id="text252"
         style="font-size:18px;text-anchor:middle;fill:#222222;stroke:none;font-family:Arial">Distinct Keys Per Txn</text>
    </g>
    <g
       id="g254"
       transform="translate(16,0)">
      <text
         x="49.299999"
         y="185.5"
         font-size="18"
         transform="matrix(0,-1,1,0,-136.2,234.8)"
         id="text256"
         style="font-size:18px;text-anchor:middle;fill:#222222;stroke:none;font-family:Arial">Performance (mil. ops/sec)</text>
    </g>
  </g>
  <g
     id="g258"
     transform="translate(-52.195508,-14.939453)" />
</svg>
