<?xml version="1.0" encoding="UTF-8" standalone="no"?>
<svg
   xmlns:dc="http://purl.org/dc/elements/1.1/"
   xmlns:cc="http://creativecommons.org/ns#"
   xmlns:rdf="http://www.w3.org/1999/02/22-rdf-syntax-ns#"
   xmlns:svg="http://www.w3.org/2000/svg"
   xmlns="http://www.w3.org/2000/svg"
   xmlns:sodipodi="http://sodipodi.sourceforge.net/DTD/sodipodi-0.dtd"
   xmlns:inkscape="http://www.inkscape.org/namespaces/inkscape"
   width="535.8045"
   height="314.64862"
   style="overflow:hidden"
   id="svg2"
   version="1.1"
   inkscape:version="0.48.3.1 r9886"
   sodipodi:docname="small_txns.svg">
  <metadata
     id="metadata258">
    <rdf:RDF>
      <cc:Work
         rdf:about="">
        <dc:format>image/svg+xml</dc:format>
        <dc:type
           rdf:resource="http://purl.org/dc/dcmitype/StillImage" />
      </cc:Work>
    </rdf:RDF>
  </metadata>
  <sodipodi:namedview
     pagecolor="#ffffff"
     bordercolor="#666666"
     borderopacity="1"
     objecttolerance="10"
     gridtolerance="10"
     guidetolerance="10"
     inkscape:pageopacity="0"
     inkscape:pageshadow="2"
     inkscape:window-width="1859"
     inkscape:window-height="1056"
     id="namedview256"
     showgrid="false"
     inkscape:zoom="0.97333333"
     inkscape:cx="253.9857"
     inkscape:cy="43.109616"
     inkscape:window-x="61"
     inkscape:window-y="24"
     inkscape:window-maximized="1"
     inkscape:current-layer="g250"
     fit-margin-top="0"
     fit-margin-left="0"
     fit-margin-right="0"
     fit-margin-bottom="0" />
  <defs
     id="defs">
    <clipPath
       id="_ABSTRACT_RENDERER_ID_559">
      <rect
         x="115"
         y="71"
         width="371"
         height="229"
         id="rect6" />
    </clipPath>
  </defs>
  <g
     id="g10"
     transform="translate(-52.195508,-34.439453)">
    <text
       x="115"
       y="49"
       font-size="20"
       font-weight="bold"
       id="text12"
       style="font-size:20px;font-weight:bold;text-anchor:start;fill:#000000;stroke:none;font-family:Arial">4 Threads, 8 Ops per Txn</text>
  </g>
  <g
     id="g14"
     transform="translate(-50.195508,-34.439453)">
    <rect
       x="500"
       y="71"
       width="86"
       height="188"
       id="rect16"
       style="fill:#ffffff;fill-opacity:0;stroke:none" />
    <g
       id="g18">
      <rect
         x="500"
         y="71"
         width="86"
         height="14"
         id="rect20"
         style="fill:#ffffff;fill-opacity:0;stroke:none" />
      <g
         id="g22">
        <text
           x="519"
           y="82.900002"
           font-size="14"
           id="text24"
           style="font-size:14px;text-anchor:start;fill:#222222;stroke:none;font-family:Arial">HLE</text>
      </g>
      <rect
         x="500"
         y="71"
         width="14"
         height="14"
         id="rect26"
         style="fill:#3366cc;stroke:none" />
    </g>
    <g
       id="g28">
      <rect
         x="500"
         y="94"
         width="86"
         height="14"
         id="rect30"
         style="fill:#ffffff;fill-opacity:0;stroke:none" />
      <g
         id="g32">
        <text
           x="519"
           y="105.9"
           font-size="14"
           id="text34"
           style="font-size:14px;text-anchor:start;fill:#222222;stroke:none;font-family:Arial">RTM</text>
      </g>
      <rect
         x="500"
         y="94"
         width="14"
         height="14"
         id="rect36"
         style="fill:#dc3912;stroke:none" />
    </g>
    <g
       id="g38">
      <rect
         x="500"
         y="117"
         width="86"
         height="14"
         id="rect40"
         style="fill:#ffffff;fill-opacity:0;stroke:none" />
      <g
         id="g42">
        <text
           x="519"
           y="128.89999"
           font-size="14"
           id="text44"
           style="font-size:14px;text-anchor:start;fill:#222222;stroke:none;font-family:Arial">Lock table</text>
      </g>
      <rect
         x="500"
         y="117"
         width="14"
         height="14"
         id="rect46"
         style="fill:#ff9900;stroke:none" />
    </g>
    <g
       id="g48">
      <rect
         x="500"
         y="140"
         width="86"
         height="14"
         id="rect50"
         style="fill:#ffffff;fill-opacity:0;stroke:none" />
      <g
         id="g52">
        <text
           x="519"
           y="151.89999"
           font-size="14"
           id="text54"
           style="font-size:14px;text-anchor:start;fill:#222222;stroke:none;font-family:Arial">Spin</text>
      </g>
      <rect
         x="500"
         y="140"
         width="14"
         height="14"
         id="rect56"
         style="fill:#109618;stroke:none" />
    </g>
    <g
       id="g58">
      <rect
         x="500"
         y="163"
         width="86"
         height="32"
         id="rect60"
         style="fill:#ffffff;fill-opacity:0;stroke:none" />
      <g
         id="g62">
        <text
           x="519"
           y="174.89999"
           font-size="14"
           id="text64"
           style="font-size:14px;text-anchor:start;fill:#222222;stroke:none;font-family:Arial">Simple</text>
        <text
           x="519"
           y="192.89999"
           font-size="14"
           id="text66"
           style="font-size:14px;text-anchor:start;fill:#222222;stroke:none;font-family:Arial">spin</text>
      </g>
      <rect
         x="500"
         y="163"
         width="14"
         height="14"
         id="rect68"
         style="fill:#990099;stroke:none" />
    </g>
    <g
       id="g70">
      <rect
         x="500"
         y="204"
         width="86"
         height="32"
         id="rect72"
         style="fill:#ffffff;fill-opacity:0;stroke:none" />
      <g
         id="g74">
        <text
           x="519"
           y="215.89999"
           font-size="14"
           id="text76"
           style="font-size:14px;text-anchor:start;fill:#222222;stroke:none;font-family:Arial">Simple</text>
        <text
           x="519"
           y="233.89999"
           font-size="14"
           id="text78"
           style="font-size:14px;text-anchor:start;fill:#222222;stroke:none;font-family:Arial">RTM</text>
      </g>
      <rect
         x="500"
         y="204"
         width="14"
         height="14"
         id="rect80"
         style="fill:#0099c6;stroke:none" />
    </g>
    <g
       id="g82">
      <rect
         x="500"
         y="245"
         width="86"
         height="14"
         id="rect84"
         style="fill:#ffffff;fill-opacity:0;stroke:none" />
      <g
         id="g86">
        <text
           x="519"
           y="256.89999"
           font-size="14"
           id="text88"
           style="font-size:14px;text-anchor:start;fill:#222222;stroke:none;font-family:Arial">Baseline</text>
      </g>
      <rect
         x="500"
         y="245"
         width="14"
         height="14"
         id="rect90"
         style="fill:#dd4477;stroke:none" />
    </g>
  </g>
  <g
     id="g92"
     transform="translate(-52.195508,-34.439453)">
    <rect
       x="115"
       y="71"
       width="371"
       height="229"
       id="rect94"
       style="fill:#ffffff;fill-opacity:0;stroke:none" />
    <g
       clip-path="url(https://docs.google.com/spreadsheet/ccc?key=0AmZyP9czufnudDBOWXg5WUNKT1FiWDI3MHN1RkdHS2c&amp;usp=drive_web#_ABSTRACT_RENDERER_ID_559)"
       id="g96">
      <g
         id="g98">
        <rect
           x="115"
           y="299"
           width="371"
           height="1"
           id="rect100"
           style="fill:#cccccc;stroke:none" />
        <rect
           x="115"
           y="248"
           width="371"
           height="1"
           id="rect102"
           style="fill:#cccccc;stroke:none" />
        <rect
           x="115"
           y="198"
           width="371"
           height="1"
           id="rect104"
           style="fill:#cccccc;stroke:none" />
        <rect
           x="115"
           y="147"
           width="371"
           height="1"
           id="rect106"
           style="fill:#cccccc;stroke:none" />
        <rect
           x="115"
           y="96"
           width="371"
           height="1"
           id="rect108"
           style="fill:#cccccc;stroke:none" />
      </g>
      <g
         id="g110">
        <rect
           x="115"
           y="71"
           width="1"
           height="229"
           id="rect112"
           style="fill:#333333;stroke:none" />
        <rect
           x="115"
           y="299"
           width="371"
           height="1"
           id="rect114"
           style="fill:#333333;stroke:none" />
      </g>
      <g
         id="g116">
        <path
           d="m 115.5,112.51213 52.85714,13.22324 105.71429,39.80678 L 485.5,235.907"
           id="path118"
           inkscape:connector-curvature="0"
           style="fill:none;stroke:#3366cc;stroke-width:2" />
        <path
           d="m 115.5,109.25693 52.85714,14.47268 105.71429,36.71192 211.42857,88.4274"
           id="path120"
           inkscape:connector-curvature="0"
           style="fill:none;stroke:#dc3912;stroke-width:2" />
        <path
           d="m 115.5,110.81366 52.85714,11.84219 105.71429,43.05071 211.42857,81.6867"
           id="path122"
           inkscape:connector-curvature="0"
           style="fill:none;stroke:#ff9900;stroke-width:2" />
        <path
           d="m 115.5,109.23653 52.85714,9.47682 105.71429,27.31884 211.42857,69.8312"
           id="path124"
           inkscape:connector-curvature="0"
           style="fill:none;stroke:#109618;stroke-width:2" />
        <path
           d="m 115.5,204.67379 52.85714,-1.14684 105.71429,8.62346 211.42857,6.60048"
           id="path126"
           inkscape:connector-curvature="0"
           style="fill:none;stroke:#990099;stroke-width:2" />
        <path
           d="m 115.5,265.46695 52.85714,3.65826 105.71429,4.70617 211.42857,10.2087"
           id="path128"
           inkscape:connector-curvature="0"
           style="fill:none;stroke:#0099c6;stroke-width:2" />
        <path
           d="m 115.5,235.91916 52.85714,7.82407 105.71429,16.39054 L 485.5,289.31473"
           id="path130"
           inkscape:connector-curvature="0"
           style="fill:none;stroke:#dd4477;stroke-width:2" />
      </g>
    </g>
    <g
       id="g132">
      <circle
         cx="115.5"
         cy="112.51213"
         r="2.5"
         id="circle134"
         sodipodi:cx="115.5"
         sodipodi:cy="112.51213"
         sodipodi:rx="2.5"
         sodipodi:ry="2.5"
         style="fill:#3366cc;stroke:none"
         d="m 118,112.51213 c 0,1.38071 -1.11929,2.5 -2.5,2.5 -1.38071,0 -2.5,-1.11929 -2.5,-2.5 0,-1.38071 1.11929,-2.5 2.5,-2.5 1.38071,0 2.5,1.11929 2.5,2.5 z" />
      <circle
         cx="168.35715"
         cy="125.73537"
         r="2.5"
         id="circle136"
         sodipodi:cx="168.35715"
         sodipodi:cy="125.73537"
         sodipodi:rx="2.5"
         sodipodi:ry="2.5"
         style="fill:#3366cc;stroke:none"
         d="m 170.85715,125.73537 c 0,1.38071 -1.11929,2.5 -2.5,2.5 -1.38071,0 -2.5,-1.11929 -2.5,-2.5 0,-1.38072 1.11929,-2.5 2.5,-2.5 1.38071,0 2.5,1.11928 2.5,2.5 z" />
      <circle
         cx="274.07144"
         cy="165.54214"
         r="2.5"
         id="circle138"
         sodipodi:cx="274.07144"
         sodipodi:cy="165.54214"
         sodipodi:rx="2.5"
         sodipodi:ry="2.5"
         style="fill:#3366cc;stroke:none"
         d="m 276.57144,165.54214 c 0,1.38072 -1.11929,2.5 -2.5,2.5 -1.38071,0 -2.5,-1.11928 -2.5,-2.5 0,-1.38071 1.11929,-2.5 2.5,-2.5 1.38071,0 2.5,1.11929 2.5,2.5 z" />
      <circle
         cx="485.5"
         cy="235.907"
         r="2.5"
         id="circle140"
         sodipodi:cx="485.5"
         sodipodi:cy="235.907"
         sodipodi:rx="2.5"
         sodipodi:ry="2.5"
         style="fill:#3366cc;stroke:none"
         d="m 488,235.907 c 0,1.38071 -1.11929,2.5 -2.5,2.5 -1.38071,0 -2.5,-1.11929 -2.5,-2.5 0,-1.38071 1.11929,-2.5 2.5,-2.5 1.38071,0 2.5,1.11929 2.5,2.5 z" />
      <circle
         cx="115.5"
         cy="109.25693"
         r="2.5"
         id="circle142"
         sodipodi:cx="115.5"
         sodipodi:cy="109.25693"
         sodipodi:rx="2.5"
         sodipodi:ry="2.5"
         style="fill:#dc3912;stroke:none"
         d="m 118,109.25693 c 0,1.38071 -1.11929,2.5 -2.5,2.5 -1.38071,0 -2.5,-1.11929 -2.5,-2.5 0,-1.38071 1.11929,-2.5 2.5,-2.5 1.38071,0 2.5,1.11929 2.5,2.5 z" />
      <circle
         cx="168.35715"
         cy="123.72961"
         r="2.5"
         id="circle144"
         sodipodi:cx="168.35715"
         sodipodi:cy="123.72961"
         sodipodi:rx="2.5"
         sodipodi:ry="2.5"
         style="fill:#dc3912;stroke:none"
         d="m 170.85715,123.72961 c 0,1.38071 -1.11929,2.5 -2.5,2.5 -1.38071,0 -2.5,-1.11929 -2.5,-2.5 0,-1.38072 1.11929,-2.5 2.5,-2.5 1.38071,0 2.5,1.11928 2.5,2.5 z" />
      <circle
         cx="274.07144"
         cy="160.44153"
         r="2.5"
         id="circle146"
         sodipodi:cx="274.07144"
         sodipodi:cy="160.44153"
         sodipodi:rx="2.5"
         sodipodi:ry="2.5"
         style="fill:#dc3912;stroke:none"
         d="m 276.57144,160.44153 c 0,1.38071 -1.11929,2.5 -2.5,2.5 -1.38071,0 -2.5,-1.11929 -2.5,-2.5 0,-1.38071 1.11929,-2.5 2.5,-2.5 1.38071,0 2.5,1.11929 2.5,2.5 z" />
      <circle
         cx="485.5"
         cy="248.86893"
         r="2.5"
         id="circle148"
         sodipodi:cx="485.5"
         sodipodi:cy="248.86893"
         sodipodi:rx="2.5"
         sodipodi:ry="2.5"
         style="fill:#dc3912;stroke:none"
         d="m 488,248.86893 c 0,1.38071 -1.11929,2.5 -2.5,2.5 -1.38071,0 -2.5,-1.11929 -2.5,-2.5 0,-1.38071 1.11929,-2.5 2.5,-2.5 1.38071,0 2.5,1.11929 2.5,2.5 z" />
      <circle
         cx="115.5"
         cy="110.81366"
         r="2.5"
         id="circle150"
         sodipodi:cx="115.5"
         sodipodi:cy="110.81366"
         sodipodi:rx="2.5"
         sodipodi:ry="2.5"
         style="fill:#ff9900;stroke:none"
         d="m 118,110.81366 c 0,1.38071 -1.11929,2.5 -2.5,2.5 -1.38071,0 -2.5,-1.11929 -2.5,-2.5 0,-1.38071 1.11929,-2.5 2.5,-2.5 1.38071,0 2.5,1.11929 2.5,2.5 z" />
      <circle
         cx="168.35715"
         cy="122.65585"
         r="2.5"
         id="circle152"
         sodipodi:cx="168.35715"
         sodipodi:cy="122.65585"
         sodipodi:rx="2.5"
         sodipodi:ry="2.5"
         style="fill:#ff9900;stroke:none"
         d="m 170.85715,122.65585 c 0,1.38072 -1.11929,2.5 -2.5,2.5 -1.38071,0 -2.5,-1.11928 -2.5,-2.5 0,-1.38071 1.11929,-2.5 2.5,-2.5 1.38071,0 2.5,1.11929 2.5,2.5 z" />
      <circle
         cx="274.07144"
         cy="165.70656"
         r="2.5"
         id="circle154"
         sodipodi:cx="274.07144"
         sodipodi:cy="165.70656"
         sodipodi:rx="2.5"
         sodipodi:ry="2.5"
         style="fill:#ff9900;stroke:none"
         d="m 276.57144,165.70656 c 0,1.38071 -1.11929,2.5 -2.5,2.5 -1.38071,0 -2.5,-1.11929 -2.5,-2.5 0,-1.38071 1.11929,-2.5 2.5,-2.5 1.38071,0 2.5,1.11929 2.5,2.5 z" />
      <circle
         cx="485.5"
         cy="247.39326"
         r="2.5"
         id="circle156"
         sodipodi:cx="485.5"
         sodipodi:cy="247.39326"
         sodipodi:rx="2.5"
         sodipodi:ry="2.5"
         style="fill:#ff9900;stroke:none"
         d="m 488,247.39326 c 0,1.38072 -1.11929,2.5 -2.5,2.5 -1.38071,0 -2.5,-1.11928 -2.5,-2.5 0,-1.38071 1.11929,-2.5 2.5,-2.5 1.38071,0 2.5,1.11929 2.5,2.5 z" />
      <circle
         cx="115.5"
         cy="109.23653"
         r="2.5"
         id="circle158"
         sodipodi:cx="115.5"
         sodipodi:cy="109.23653"
         sodipodi:rx="2.5"
         sodipodi:ry="2.5"
         style="fill:#109618;stroke:none"
         d="m 118,109.23653 c 0,1.38071 -1.11929,2.5 -2.5,2.5 -1.38071,0 -2.5,-1.11929 -2.5,-2.5 0,-1.38072 1.11929,-2.5 2.5,-2.5 1.38071,0 2.5,1.11928 2.5,2.5 z" />
      <circle
         cx="168.35715"
         cy="118.71336"
         r="2.5"
         id="circle160"
         sodipodi:cx="168.35715"
         sodipodi:cy="118.71336"
         sodipodi:rx="2.5"
         sodipodi:ry="2.5"
         style="fill:#109618;stroke:none"
         d="m 170.85715,118.71336 c 0,1.38072 -1.11929,2.5 -2.5,2.5 -1.38071,0 -2.5,-1.11928 -2.5,-2.5 0,-1.38071 1.11929,-2.5 2.5,-2.5 1.38071,0 2.5,1.11929 2.5,2.5 z" />
      <circle
         cx="274.07144"
         cy="146.03218"
         r="2.5"
         id="circle162"
         sodipodi:cx="274.07144"
         sodipodi:cy="146.03218"
         sodipodi:rx="2.5"
         sodipodi:ry="2.5"
         style="fill:#109618;stroke:none"
         d="m 276.57144,146.03218 c 0,1.38071 -1.11929,2.5 -2.5,2.5 -1.38071,0 -2.5,-1.11929 -2.5,-2.5 0,-1.38071 1.11929,-2.5 2.5,-2.5 1.38071,0 2.5,1.11929 2.5,2.5 z" />
      <circle
         cx="485.5"
         cy="215.86339"
         r="2.5"
         id="circle164"
         sodipodi:cx="485.5"
         sodipodi:cy="215.86339"
         sodipodi:rx="2.5"
         sodipodi:ry="2.5"
         style="fill:#109618;stroke:none"
         d="m 488,215.86339 c 0,1.38071 -1.11929,2.5 -2.5,2.5 -1.38071,0 -2.5,-1.11929 -2.5,-2.5 0,-1.38071 1.11929,-2.5 2.5,-2.5 1.38071,0 2.5,1.11929 2.5,2.5 z" />
      <circle
         cx="115.5"
         cy="204.67378"
         r="2.5"
         id="circle166"
         sodipodi:cx="115.5"
         sodipodi:cy="204.67378"
         sodipodi:rx="2.5"
         sodipodi:ry="2.5"
         style="fill:#990099;stroke:none"
         d="m 118,204.67378 c 0,1.38071 -1.11929,2.5 -2.5,2.5 -1.38071,0 -2.5,-1.11929 -2.5,-2.5 0,-1.38071 1.11929,-2.5 2.5,-2.5 1.38071,0 2.5,1.11929 2.5,2.5 z" />
      <circle
         cx="168.35715"
         cy="203.52695"
         r="2.5"
         id="circle168"
         sodipodi:cx="168.35715"
         sodipodi:cy="203.52695"
         sodipodi:rx="2.5"
         sodipodi:ry="2.5"
         style="fill:#990099;stroke:none"
         d="m 170.85715,203.52695 c 0,1.38071 -1.11929,2.5 -2.5,2.5 -1.38071,0 -2.5,-1.11929 -2.5,-2.5 0,-1.38071 1.11929,-2.5 2.5,-2.5 1.38071,0 2.5,1.11929 2.5,2.5 z" />
      <circle
         cx="274.07144"
         cy="212.15041"
         r="2.5"
         id="circle170"
         sodipodi:cx="274.07144"
         sodipodi:cy="212.15041"
         sodipodi:rx="2.5"
         sodipodi:ry="2.5"
         style="fill:#990099;stroke:none"
         d="m 276.57144,212.15041 c 0,1.38071 -1.11929,2.5 -2.5,2.5 -1.38071,0 -2.5,-1.11929 -2.5,-2.5 0,-1.38072 1.11929,-2.5 2.5,-2.5 1.38071,0 2.5,1.11928 2.5,2.5 z" />
      <circle
         cx="485.5"
         cy="218.75089"
         r="2.5"
         id="circle172"
         sodipodi:cx="485.5"
         sodipodi:cy="218.75089"
         sodipodi:rx="2.5"
         sodipodi:ry="2.5"
         style="fill:#990099;stroke:none"
         d="m 488,218.75089 c 0,1.38071 -1.11929,2.5 -2.5,2.5 -1.38071,0 -2.5,-1.11929 -2.5,-2.5 0,-1.38072 1.11929,-2.5 2.5,-2.5 1.38071,0 2.5,1.11928 2.5,2.5 z" />
      <circle
         cx="115.5"
         cy="265.46695"
         r="2.5"
         id="circle174"
         sodipodi:cx="115.5"
         sodipodi:cy="265.46695"
         sodipodi:rx="2.5"
         sodipodi:ry="2.5"
         style="fill:#0099c6;stroke:none"
         d="m 118,265.46695 c 0,1.38071 -1.11929,2.5 -2.5,2.5 -1.38071,0 -2.5,-1.11929 -2.5,-2.5 0,-1.38071 1.11929,-2.5 2.5,-2.5 1.38071,0 2.5,1.11929 2.5,2.5 z" />
      <circle
         cx="168.35715"
         cy="269.12521"
         r="2.5"
         id="circle176"
         sodipodi:cx="168.35715"
         sodipodi:cy="269.12521"
         sodipodi:rx="2.5"
         sodipodi:ry="2.5"
         style="fill:#0099c6;stroke:none"
         d="m 170.85715,269.12521 c 0,1.38072 -1.11929,2.5 -2.5,2.5 -1.38071,0 -2.5,-1.11928 -2.5,-2.5 0,-1.38071 1.11929,-2.5 2.5,-2.5 1.38071,0 2.5,1.11929 2.5,2.5 z" />
      <circle
         cx="274.07144"
         cy="273.83139"
         r="2.5"
         id="circle178"
         sodipodi:cx="274.07144"
         sodipodi:cy="273.83139"
         sodipodi:rx="2.5"
         sodipodi:ry="2.5"
         style="fill:#0099c6;stroke:none"
         d="m 276.57144,273.83139 c 0,1.38071 -1.11929,2.5 -2.5,2.5 -1.38071,0 -2.5,-1.11929 -2.5,-2.5 0,-1.38071 1.11929,-2.5 2.5,-2.5 1.38071,0 2.5,1.11929 2.5,2.5 z" />
      <circle
         cx="485.5"
         cy="284.04007"
         r="2.5"
         id="circle180"
         sodipodi:cx="485.5"
         sodipodi:cy="284.04007"
         sodipodi:rx="2.5"
         sodipodi:ry="2.5"
         style="fill:#0099c6;stroke:none"
         d="m 488,284.04007 c 0,1.38071 -1.11929,2.5 -2.5,2.5 -1.38071,0 -2.5,-1.11929 -2.5,-2.5 0,-1.38071 1.11929,-2.5 2.5,-2.5 1.38071,0 2.5,1.11929 2.5,2.5 z" />
      <circle
         cx="115.5"
         cy="235.91916"
         r="2.5"
         id="circle182"
         sodipodi:cx="115.5"
         sodipodi:cy="235.91916"
         sodipodi:rx="2.5"
         sodipodi:ry="2.5"
         style="fill:#dd4477;stroke:none"
         d="m 118,235.91916 c 0,1.38071 -1.11929,2.5 -2.5,2.5 -1.38071,0 -2.5,-1.11929 -2.5,-2.5 0,-1.38071 1.11929,-2.5 2.5,-2.5 1.38071,0 2.5,1.11929 2.5,2.5 z" />
      <circle
         cx="168.35715"
         cy="243.74324"
         r="2.5"
         id="circle184"
         sodipodi:cx="168.35715"
         sodipodi:cy="243.74324"
         sodipodi:rx="2.5"
         sodipodi:ry="2.5"
         style="fill:#dd4477;stroke:none"
         d="m 170.85715,243.74324 c 0,1.38071 -1.11929,2.5 -2.5,2.5 -1.38071,0 -2.5,-1.11929 -2.5,-2.5 0,-1.38071 1.11929,-2.5 2.5,-2.5 1.38071,0 2.5,1.11929 2.5,2.5 z" />
      <circle
         cx="274.07144"
         cy="260.13376"
         r="2.5"
         id="circle186"
         sodipodi:cx="274.07144"
         sodipodi:cy="260.13376"
         sodipodi:rx="2.5"
         sodipodi:ry="2.5"
         style="fill:#dd4477;stroke:none"
         d="m 276.57144,260.13376 c 0,1.38071 -1.11929,2.5 -2.5,2.5 -1.38071,0 -2.5,-1.11929 -2.5,-2.5 0,-1.38071 1.11929,-2.5 2.5,-2.5 1.38071,0 2.5,1.11929 2.5,2.5 z" />
      <circle
         cx="485.5"
         cy="289.31473"
         r="2.5"
         id="circle188"
         sodipodi:cx="485.5"
         sodipodi:cy="289.31473"
         sodipodi:rx="2.5"
         sodipodi:ry="2.5"
         style="fill:#dd4477;stroke:none"
         d="m 488,289.31473 c 0,1.38071 -1.11929,2.5 -2.5,2.5 -1.38071,0 -2.5,-1.11929 -2.5,-2.5 0,-1.38071 1.11929,-2.5 2.5,-2.5 1.38071,0 2.5,1.11929 2.5,2.5 z" />
    </g>
    <g
       id="g190">
      <g
         id="g192">
        <text
           x="115.5"
           y="317.20001"
           font-size="12"
           id="text194"
           style="font-size:12px;text-anchor:middle;fill:#444444;stroke:none;font-family:Arial">1</text>
      </g>
      <g
         id="g196">
        <text
           x="168.35715"
           y="317.20001"
           font-size="12"
           id="text198"
           style="font-size:12px;text-anchor:middle;fill:#444444;stroke:none;font-family:Arial">2</text>
      </g>
      <g
         id="g204">
        <text
           x="274.07144"
           y="317.20001"
           font-size="12"
           id="text206"
           style="font-size:12px;text-anchor:middle;fill:#444444;stroke:none;font-family:Arial">4</text>
      </g>
      <g
         id="g208" />
      <g
         id="g220">
        <text
           x="485.5"
           y="317.20001"
           font-size="12"
           id="text222"
           style="font-size:12px;text-anchor:middle;fill:#444444;stroke:none;font-family:Arial">8</text>
      </g>
      <g
         id="g224">
        <text
           x="103"
           y="303.70001"
           font-size="12"
           id="text226"
           style="font-size:12px;text-anchor:end;fill:#444444;stroke:none;font-family:Arial">1</text>
      </g>
      <g
         id="g228">
        <text
           x="103"
           y="253.03334"
           font-size="12"
           id="text230"
           style="font-size:12px;text-anchor:end;fill:#444444;stroke:none;font-family:Arial">1.4</text>
      </g>
      <g
         id="g232">
        <text
           x="103"
           y="202.36667"
           font-size="12"
           id="text234"
           style="font-size:12px;text-anchor:end;fill:#444444;stroke:none;font-family:Arial">1.8</text>
      </g>
      <g
         id="g236">
        <text
           x="103"
           y="151.7"
           font-size="12"
           id="text238"
           style="font-size:12px;text-anchor:end;fill:#444444;stroke:none;font-family:Arial">2.2</text>
      </g>
      <g
         id="g240">
        <text
           x="103"
           y="101.03333"
           font-size="12"
           id="text242"
           style="font-size:12px;text-anchor:end;fill:#444444;stroke:none;font-family:Arial">2.6</text>
      </g>
    </g>
  </g>
  <g
     id="g244"
     transform="translate(-52.195508,-34.439453)">
    <g
       id="g246"
       transform="translate(0,-6)">
      <text
         x="300.5"
         y="351.29999"
         font-size="18"
         id="text248"
         style="font-size:18px;text-anchor:middle;fill:#222222;stroke:none;font-family:Arial">Distinct Keys Per Txn</text>
    </g>
    <g
       id="g250"
       transform="translate(16,0)">
      <text
         x="49.299999"
         y="185.5"
         font-size="18"
         transform="matrix(0,-1,1,0,-136.2,234.8)"
         id="text252"
         style="font-size:18px;text-anchor:middle;fill:#222222;stroke:none;font-family:Arial">Performance (million ops/sec)</text>
    </g>
  </g>
  <g
     id="g254"
     transform="translate(-52.195508,-34.439453)" />
</svg>
