<?xml version="1.0" encoding="UTF-8" standalone="no"?>
<svg
   xmlns:dc="http://purl.org/dc/elements/1.1/"
   xmlns:cc="http://creativecommons.org/ns#"
   xmlns:rdf="http://www.w3.org/1999/02/22-rdf-syntax-ns#"
   xmlns:svg="http://www.w3.org/2000/svg"
   xmlns="http://www.w3.org/2000/svg"
   xmlns:sodipodi="http://sodipodi.sourceforge.net/DTD/sodipodi-0.dtd"
   xmlns:inkscape="http://www.inkscape.org/namespaces/inkscape"
   width="549.8045"
   height="320.64862"
   style="overflow:hidden"
   id="svg2"
   version="1.1"
   inkscape:version="0.48.3.1 r9886"
   sodipodi:docname="small_txns.svg">
  <metadata
     id="metadata280">
    <rdf:RDF>
      <cc:Work
         rdf:about="">
        <dc:format>image/svg+xml</dc:format>
        <dc:type
           rdf:resource="http://purl.org/dc/dcmitype/StillImage" />
        <dc:title></dc:title>
      </cc:Work>
    </rdf:RDF>
  </metadata>
  <sodipodi:namedview
     pagecolor="#ffffff"
     bordercolor="#666666"
     borderopacity="1"
     objecttolerance="10"
     gridtolerance="10"
     guidetolerance="10"
     inkscape:pageopacity="0"
     inkscape:pageshadow="2"
     inkscape:window-width="1859"
     inkscape:window-height="1056"
     id="namedview278"
     showgrid="false"
     inkscape:zoom="1.9466667"
     inkscape:cx="264.13951"
     inkscape:cy="123.02278"
     inkscape:window-x="61"
     inkscape:window-y="24"
     inkscape:window-maximized="1"
     inkscape:current-layer="g266"
     fit-margin-top="0"
     fit-margin-left="0"
     fit-margin-right="0"
     fit-margin-bottom="0" />
  <defs
     id="defs">
    <clipPath
       id="_ABSTRACT_RENDERER_ID_405">
      <rect
         x="115"
         y="71"
         width="371"
         height="229"
         id="rect6" />
    </clipPath>
  </defs>
  <g
     id="g10"
     transform="translate(-36.195508,-34.439453)">
    <text
       x="115"
       y="49"
       font-size="20"
       font-weight="bold"
       id="text12"
       style="font-size:20px;font-weight:bold;text-anchor:start;fill:#000000;stroke:none;font-family:Arial">4 Threads, 64 Ops per Txn</text>
  </g>
  <g
     id="g14"
     transform="translate(-34.195508,-34.439453)">
    <rect
       x="500"
       y="71"
       width="86"
       height="188"
       id="rect16"
       style="fill:#ffffff;fill-opacity:0;stroke:none" />
    <g
       id="g18">
      <rect
         x="500"
         y="71"
         width="86"
         height="14"
         id="rect20"
         style="fill:#ffffff;fill-opacity:0;stroke:none" />
      <g
         id="g22">
        <text
           x="519"
           y="82.900002"
           font-size="14"
           id="text24"
           style="font-size:14px;text-anchor:start;fill:#222222;stroke:none;font-family:Arial">HLE</text>
      </g>
      <rect
         x="500"
         y="71"
         width="14"
         height="14"
         id="rect26"
         style="fill:#3366cc;stroke:none" />
    </g>
    <g
       id="g28">
      <rect
         x="500"
         y="94"
         width="86"
         height="14"
         id="rect30"
         style="fill:#ffffff;fill-opacity:0;stroke:none" />
      <g
         id="g32">
        <text
           x="519"
           y="105.9"
           font-size="14"
           id="text34"
           style="font-size:14px;text-anchor:start;fill:#222222;stroke:none;font-family:Arial">RTM</text>
      </g>
      <rect
         x="500"
         y="94"
         width="14"
         height="14"
         id="rect36"
         style="fill:#dc3912;stroke:none" />
    </g>
    <g
       id="g38">
      <rect
         x="500"
         y="117"
         width="86"
         height="14"
         id="rect40"
         style="fill:#ffffff;fill-opacity:0;stroke:none" />
      <g
         id="g42">
        <text
           x="519"
           y="128.89999"
           font-size="14"
           id="text44"
           style="font-size:14px;text-anchor:start;fill:#222222;stroke:none;font-family:Arial">Lock table</text>
      </g>
      <rect
         x="500"
         y="117"
         width="14"
         height="14"
         id="rect46"
         style="fill:#ff9900;stroke:none" />
    </g>
    <g
       id="g48">
      <rect
         x="500"
         y="140"
         width="86"
         height="14"
         id="rect50"
         style="fill:#ffffff;fill-opacity:0;stroke:none" />
      <g
         id="g52">
        <text
           x="519"
           y="151.89999"
           font-size="14"
           id="text54"
           style="font-size:14px;text-anchor:start;fill:#222222;stroke:none;font-family:Arial">Spin</text>
      </g>
      <rect
         x="500"
         y="140"
         width="14"
         height="14"
         id="rect56"
         style="fill:#109618;stroke:none" />
    </g>
    <g
       id="g58">
      <rect
         x="500"
         y="163"
         width="86"
         height="32"
         id="rect60"
         style="fill:#ffffff;fill-opacity:0;stroke:none" />
      <g
         id="g62">
        <text
           x="519"
           y="174.89999"
           font-size="14"
           id="text64"
           style="font-size:14px;text-anchor:start;fill:#222222;stroke:none;font-family:Arial">Simple</text>
        <text
           x="519"
           y="192.89999"
           font-size="14"
           id="text66"
           style="font-size:14px;text-anchor:start;fill:#222222;stroke:none;font-family:Arial">spin</text>
      </g>
      <rect
         x="500"
         y="163"
         width="14"
         height="14"
         id="rect68"
         style="fill:#990099;stroke:none" />
    </g>
    <g
       id="g70">
      <rect
         x="500"
         y="204"
         width="86"
         height="32"
         id="rect72"
         style="fill:#ffffff;fill-opacity:0;stroke:none" />
      <g
         id="g74">
        <text
           x="519"
           y="215.89999"
           font-size="14"
           id="text76"
           style="font-size:14px;text-anchor:start;fill:#222222;stroke:none;font-family:Arial">Simple</text>
        <text
           x="519"
           y="233.89999"
           font-size="14"
           id="text78"
           style="font-size:14px;text-anchor:start;fill:#222222;stroke:none;font-family:Arial">RTM</text>
      </g>
      <rect
         x="500"
         y="204"
         width="14"
         height="14"
         id="rect80"
         style="fill:#0099c6;stroke:none" />
    </g>
    <g
       id="g82">
      <rect
         x="500"
         y="245"
         width="86"
         height="14"
         id="rect84"
         style="fill:#ffffff;fill-opacity:0;stroke:none" />
      <g
         id="g86">
        <text
           x="519"
           y="256.89999"
           font-size="14"
           id="text88"
           style="font-size:14px;text-anchor:start;fill:#222222;stroke:none;font-family:Arial">Baseline</text>
      </g>
      <rect
         x="500"
         y="245"
         width="14"
         height="14"
         id="rect90"
         style="fill:#dd4477;stroke:none" />
    </g>
  </g>
  <g
     id="g92"
     transform="translate(-36.195508,-34.439453)">
    <rect
       x="115"
       y="71"
       width="371"
       height="229"
       id="rect94"
       style="fill:#ffffff;fill-opacity:0;stroke:none" />
    <g
       clip-path="url(https://docs.google.com/spreadsheet/ccc?key=0AmZyP9czufnudDBOWXg5WUNKT1FiWDI3MHN1RkdHS2c&amp;usp=drive_web#_ABSTRACT_RENDERER_ID_405)"
       id="g96">
      <g
         id="g98">
        <rect
           x="115"
           y="299"
           width="371"
           height="1"
           id="rect100"
           style="fill:#cccccc;stroke:none" />
        <rect
           x="115"
           y="248"
           width="371"
           height="1"
           id="rect102"
           style="fill:#cccccc;stroke:none" />
        <rect
           x="115"
           y="198"
           width="371"
           height="1"
           id="rect104"
           style="fill:#cccccc;stroke:none" />
        <rect
           x="115"
           y="147"
           width="371"
           height="1"
           id="rect106"
           style="fill:#cccccc;stroke:none" />
        <rect
           x="115"
           y="96"
           width="371"
           height="1"
           id="rect108"
           style="fill:#cccccc;stroke:none" />
      </g>
      <g
         id="g110">
        <rect
           x="115"
           y="71"
           width="1"
           height="229"
           id="rect112"
           style="fill:#333333;stroke:none" />
        <rect
           x="115"
           y="299"
           width="371"
           height="1"
           id="rect114"
           style="fill:#333333;stroke:none" />
      </g>
      <g
         id="g116">
        <path
           d="m 136.05556,89.110467 20.55555,4.15074 41.11111,25.565643 82.22222,93.21868 164.44445,57.60585"
           id="path118"
           inkscape:connector-curvature="0"
           style="fill:none;stroke:#3366cc;stroke-width:2" />
        <path
           d="m 136.05556,97.306307 20.55555,-2.923847 41.11111,35.99373 82.22222,99.74164 164.44445,48.05366"
           id="path120"
           inkscape:connector-curvature="0"
           style="fill:none;stroke:#dc3912;stroke-width:2" />
        <path
           d="m 136.05556,92.74238 20.55555,2.1698 41.11111,35.90709 82.22222,88.62752 164.44445,53.69324"
           id="path122"
           inkscape:connector-curvature="0"
           style="fill:none;stroke:#ff9900;stroke-width:2" />
        <path
           d="m 136.05556,94.458207 20.55555,-0.321607 41.11111,27.83563 82.22222,78.83734 164.44445,44.80554"
           id="path124"
           inkscape:connector-curvature="0"
           style="fill:none;stroke:#109618;stroke-width:2" />
        <path
           d="m 136.05556,184.42599 20.55555,2.3023 41.11111,3.21568 82.22222,3.20214 164.44445,7.6689"
           id="path126"
           inkscape:connector-curvature="0"
           style="fill:none;stroke:#990099;stroke-width:2" />
        <path
           d="m 136.05556,211.05107 20.55555,-4.40204 41.11111,7.5473 82.22222,2.93196 164.44445,9.18219"
           id="path128"
           inkscape:connector-curvature="0"
           style="fill:none;stroke:#0099c6;stroke-width:2" />
        <path
           d="m 136.05556,220.50877 20.55555,10.70067 41.11111,9.27415 82.22222,0.72694 164.44445,15.83511"
           id="path130"
           inkscape:connector-curvature="0"
           style="fill:none;stroke:#dd4477;stroke-width:2" />
      </g>
    </g>
    <g
       id="g132">
      <circle
         cx="136.05556"
         cy="89.110466"
         r="2.5"
         id="circle134"
         sodipodi:cx="136.05556"
         sodipodi:cy="89.110466"
         sodipodi:rx="2.5"
         sodipodi:ry="2.5"
         style="fill:#3366cc;stroke:none"
         d="m 138.55556,89.110466 c 0,1.380712 -1.11929,2.5 -2.5,2.5 -1.38071,0 -2.5,-1.119288 -2.5,-2.5 0,-1.380712 1.11929,-2.5 2.5,-2.5 1.38071,0 2.5,1.119288 2.5,2.5 z" />
      <circle
         cx="156.61111"
         cy="93.261208"
         r="2.5"
         id="circle136"
         sodipodi:cx="156.61111"
         sodipodi:cy="93.261208"
         sodipodi:rx="2.5"
         sodipodi:ry="2.5"
         style="fill:#3366cc;stroke:none"
         d="m 159.11111,93.261208 c 0,1.380711 -1.11928,2.5 -2.5,2.5 -1.38071,0 -2.5,-1.119289 -2.5,-2.5 0,-1.380712 1.11929,-2.5 2.5,-2.5 1.38072,0 2.5,1.119288 2.5,2.5 z" />
      <circle
         cx="197.72223"
         cy="118.82684"
         r="2.5"
         id="circle138"
         sodipodi:cx="197.72223"
         sodipodi:cy="118.82684"
         sodipodi:rx="2.5"
         sodipodi:ry="2.5"
         style="fill:#3366cc;stroke:none"
         d="m 200.22223,118.82684 c 0,1.38072 -1.11929,2.5 -2.5,2.5 -1.38071,0 -2.5,-1.11928 -2.5,-2.5 0,-1.38071 1.11929,-2.5 2.5,-2.5 1.38071,0 2.5,1.11929 2.5,2.5 z" />
      <circle
         cx="279.94446"
         cy="212.04553"
         r="2.5"
         id="circle140"
         sodipodi:cx="279.94446"
         sodipodi:cy="212.04553"
         sodipodi:rx="2.5"
         sodipodi:ry="2.5"
         style="fill:#3366cc;stroke:none"
         d="m 282.44446,212.04553 c 0,1.38071 -1.11929,2.5 -2.5,2.5 -1.38071,0 -2.5,-1.11929 -2.5,-2.5 0,-1.38071 1.11929,-2.5 2.5,-2.5 1.38071,0 2.5,1.11929 2.5,2.5 z" />
      <circle
         cx="444.38889"
         cy="269.65137"
         r="2.5"
         id="circle142"
         sodipodi:cx="444.38889"
         sodipodi:cy="269.65137"
         sodipodi:rx="2.5"
         sodipodi:ry="2.5"
         style="fill:#3366cc;stroke:none"
         d="m 446.88889,269.65137 c 0,1.38071 -1.11929,2.5 -2.5,2.5 -1.38072,0 -2.5,-1.11929 -2.5,-2.5 0,-1.38071 1.11928,-2.5 2.5,-2.5 1.38071,0 2.5,1.11929 2.5,2.5 z" />
      <circle
         cx="136.05556"
         cy="97.306305"
         r="2.5"
         id="circle144"
         sodipodi:cx="136.05556"
         sodipodi:cy="97.306305"
         sodipodi:rx="2.5"
         sodipodi:ry="2.5"
         style="fill:#dc3912;stroke:none"
         d="m 138.55556,97.306305 c 0,1.380712 -1.11929,2.5 -2.5,2.5 -1.38071,0 -2.5,-1.119288 -2.5,-2.5 0,-1.380712 1.11929,-2.5 2.5,-2.5 1.38071,0 2.5,1.119288 2.5,2.5 z" />
      <circle
         cx="156.61111"
         cy="94.382462"
         r="2.5"
         id="circle146"
         sodipodi:cx="156.61111"
         sodipodi:cy="94.382462"
         sodipodi:rx="2.5"
         sodipodi:ry="2.5"
         style="fill:#dc3912;stroke:none"
         d="m 159.11111,94.382462 c 0,1.380711 -1.11928,2.5 -2.5,2.5 -1.38071,0 -2.5,-1.119289 -2.5,-2.5 0,-1.380712 1.11929,-2.5 2.5,-2.5 1.38072,0 2.5,1.119288 2.5,2.5 z" />
      <circle
         cx="197.72223"
         cy="130.37619"
         r="2.5"
         id="circle148"
         sodipodi:cx="197.72223"
         sodipodi:cy="130.37619"
         sodipodi:rx="2.5"
         sodipodi:ry="2.5"
         style="fill:#dc3912;stroke:none"
         d="m 200.22223,130.37619 c 0,1.38071 -1.11929,2.5 -2.5,2.5 -1.38071,0 -2.5,-1.11929 -2.5,-2.5 0,-1.38071 1.11929,-2.5 2.5,-2.5 1.38071,0 2.5,1.11929 2.5,2.5 z" />
      <circle
         cx="279.94446"
         cy="230.11783"
         r="2.5"
         id="circle150"
         sodipodi:cx="279.94446"
         sodipodi:cy="230.11783"
         sodipodi:rx="2.5"
         sodipodi:ry="2.5"
         style="fill:#dc3912;stroke:none"
         d="m 282.44446,230.11783 c 0,1.38071 -1.11929,2.5 -2.5,2.5 -1.38071,0 -2.5,-1.11929 -2.5,-2.5 0,-1.38071 1.11929,-2.5 2.5,-2.5 1.38071,0 2.5,1.11929 2.5,2.5 z" />
      <circle
         cx="444.38889"
         cy="278.17148"
         r="2.5"
         id="circle152"
         sodipodi:cx="444.38889"
         sodipodi:cy="278.17148"
         sodipodi:rx="2.5"
         sodipodi:ry="2.5"
         style="fill:#dc3912;stroke:none"
         d="m 446.88889,278.17148 c 0,1.38071 -1.11929,2.5 -2.5,2.5 -1.38072,0 -2.5,-1.11929 -2.5,-2.5 0,-1.38071 1.11928,-2.5 2.5,-2.5 1.38071,0 2.5,1.11929 2.5,2.5 z" />
      <circle
         cx="136.05556"
         cy="92.742378"
         r="2.5"
         id="circle154"
         sodipodi:cx="136.05556"
         sodipodi:cy="92.742378"
         sodipodi:rx="2.5"
         sodipodi:ry="2.5"
         style="fill:#ff9900;stroke:none"
         d="m 138.55556,92.742378 c 0,1.380712 -1.11929,2.5 -2.5,2.5 -1.38071,0 -2.5,-1.119288 -2.5,-2.5 0,-1.380712 1.11929,-2.5 2.5,-2.5 1.38071,0 2.5,1.119288 2.5,2.5 z" />
      <circle
         cx="156.61111"
         cy="94.912178"
         r="2.5"
         id="circle156"
         sodipodi:cx="156.61111"
         sodipodi:cy="94.912178"
         sodipodi:rx="2.5"
         sodipodi:ry="2.5"
         style="fill:#ff9900;stroke:none"
         d="m 159.11111,94.912178 c 0,1.380712 -1.11928,2.5 -2.5,2.5 -1.38071,0 -2.5,-1.119288 -2.5,-2.5 0,-1.380712 1.11929,-2.5 2.5,-2.5 1.38072,0 2.5,1.119288 2.5,2.5 z" />
      <circle
         cx="197.72223"
         cy="130.81926"
         r="2.5"
         id="circle158"
         sodipodi:cx="197.72223"
         sodipodi:cy="130.81926"
         sodipodi:rx="2.5"
         sodipodi:ry="2.5"
         style="fill:#ff9900;stroke:none"
         d="m 200.22223,130.81926 c 0,1.38071 -1.11929,2.5 -2.5,2.5 -1.38071,0 -2.5,-1.11929 -2.5,-2.5 0,-1.38071 1.11929,-2.5 2.5,-2.5 1.38071,0 2.5,1.11929 2.5,2.5 z" />
      <circle
         cx="279.94446"
         cy="219.44679"
         r="2.5"
         id="circle160"
         sodipodi:cx="279.94446"
         sodipodi:cy="219.44679"
         sodipodi:rx="2.5"
         sodipodi:ry="2.5"
         style="fill:#ff9900;stroke:none"
         d="m 282.44446,219.44679 c 0,1.38071 -1.11929,2.5 -2.5,2.5 -1.38071,0 -2.5,-1.11929 -2.5,-2.5 0,-1.38071 1.11929,-2.5 2.5,-2.5 1.38071,0 2.5,1.11929 2.5,2.5 z" />
      <circle
         cx="444.38889"
         cy="273.14005"
         r="2.5"
         id="circle162"
         sodipodi:cx="444.38889"
         sodipodi:cy="273.14005"
         sodipodi:rx="2.5"
         sodipodi:ry="2.5"
         style="fill:#ff9900;stroke:none"
         d="m 446.88889,273.14005 c 0,1.38071 -1.11929,2.5 -2.5,2.5 -1.38072,0 -2.5,-1.11929 -2.5,-2.5 0,-1.38072 1.11928,-2.5 2.5,-2.5 1.38071,0 2.5,1.11928 2.5,2.5 z" />
      <circle
         cx="136.05556"
         cy="94.458206"
         r="2.5"
         id="circle164"
         sodipodi:cx="136.05556"
         sodipodi:cy="94.458206"
         sodipodi:rx="2.5"
         sodipodi:ry="2.5"
         style="fill:#109618;stroke:none"
         d="m 138.55556,94.458206 c 0,1.380712 -1.11929,2.5 -2.5,2.5 -1.38071,0 -2.5,-1.119288 -2.5,-2.5 0,-1.380712 1.11929,-2.5 2.5,-2.5 1.38071,0 2.5,1.119288 2.5,2.5 z" />
      <circle
         cx="156.61111"
         cy="94.136597"
         r="2.5"
         id="circle166"
         sodipodi:cx="156.61111"
         sodipodi:cy="94.136597"
         sodipodi:rx="2.5"
         sodipodi:ry="2.5"
         style="fill:#109618;stroke:none"
         d="m 159.11111,94.136597 c 0,1.380712 -1.11928,2.5 -2.5,2.5 -1.38071,0 -2.5,-1.119288 -2.5,-2.5 0,-1.380712 1.11929,-2.5 2.5,-2.5 1.38072,0 2.5,1.119288 2.5,2.5 z" />
      <circle
         cx="197.72223"
         cy="121.97224"
         r="2.5"
         id="circle168"
         sodipodi:cx="197.72223"
         sodipodi:cy="121.97224"
         sodipodi:rx="2.5"
         sodipodi:ry="2.5"
         style="fill:#109618;stroke:none"
         d="m 200.22223,121.97224 c 0,1.38071 -1.11929,2.5 -2.5,2.5 -1.38071,0 -2.5,-1.11929 -2.5,-2.5 0,-1.38072 1.11929,-2.5 2.5,-2.5 1.38071,0 2.5,1.11928 2.5,2.5 z" />
      <circle
         cx="279.94446"
         cy="200.80957"
         r="2.5"
         id="circle170"
         sodipodi:cx="279.94446"
         sodipodi:cy="200.80957"
         sodipodi:rx="2.5"
         sodipodi:ry="2.5"
         style="fill:#109618;stroke:none"
         d="m 282.44446,200.80957 c 0,1.38071 -1.11929,2.5 -2.5,2.5 -1.38071,0 -2.5,-1.11929 -2.5,-2.5 0,-1.38071 1.11929,-2.5 2.5,-2.5 1.38071,0 2.5,1.11929 2.5,2.5 z" />
      <circle
         cx="444.38889"
         cy="245.61511"
         r="2.5"
         id="circle172"
         sodipodi:cx="444.38889"
         sodipodi:cy="245.61511"
         sodipodi:rx="2.5"
         sodipodi:ry="2.5"
         style="fill:#109618;stroke:none"
         d="m 446.88889,245.61511 c 0,1.38071 -1.11929,2.5 -2.5,2.5 -1.38072,0 -2.5,-1.11929 -2.5,-2.5 0,-1.38071 1.11928,-2.5 2.5,-2.5 1.38071,0 2.5,1.11929 2.5,2.5 z" />
      <circle
         cx="136.05556"
         cy="184.42599"
         r="2.5"
         id="circle174"
         sodipodi:cx="136.05556"
         sodipodi:cy="184.42599"
         sodipodi:rx="2.5"
         sodipodi:ry="2.5"
         style="fill:#990099;stroke:none"
         d="m 138.55556,184.42599 c 0,1.38072 -1.11929,2.5 -2.5,2.5 -1.38071,0 -2.5,-1.11928 -2.5,-2.5 0,-1.38071 1.11929,-2.5 2.5,-2.5 1.38071,0 2.5,1.11929 2.5,2.5 z" />
      <circle
         cx="156.61111"
         cy="186.72829"
         r="2.5"
         id="circle176"
         sodipodi:cx="156.61111"
         sodipodi:cy="186.72829"
         sodipodi:rx="2.5"
         sodipodi:ry="2.5"
         style="fill:#990099;stroke:none"
         d="m 159.11111,186.72829 c 0,1.38071 -1.11928,2.5 -2.5,2.5 -1.38071,0 -2.5,-1.11929 -2.5,-2.5 0,-1.38072 1.11929,-2.5 2.5,-2.5 1.38072,0 2.5,1.11928 2.5,2.5 z" />
      <circle
         cx="197.72223"
         cy="189.94397"
         r="2.5"
         id="circle178"
         sodipodi:cx="197.72223"
         sodipodi:cy="189.94397"
         sodipodi:rx="2.5"
         sodipodi:ry="2.5"
         style="fill:#990099;stroke:none"
         d="m 200.22223,189.94397 c 0,1.38071 -1.11929,2.5 -2.5,2.5 -1.38071,0 -2.5,-1.11929 -2.5,-2.5 0,-1.38071 1.11929,-2.5 2.5,-2.5 1.38071,0 2.5,1.11929 2.5,2.5 z" />
      <circle
         cx="279.94446"
         cy="193.1461"
         r="2.5"
         id="circle180"
         sodipodi:cx="279.94446"
         sodipodi:cy="193.1461"
         sodipodi:rx="2.5"
         sodipodi:ry="2.5"
         style="fill:#990099;stroke:none"
         d="m 282.44446,193.1461 c 0,1.38071 -1.11929,2.5 -2.5,2.5 -1.38071,0 -2.5,-1.11929 -2.5,-2.5 0,-1.38071 1.11929,-2.5 2.5,-2.5 1.38071,0 2.5,1.11929 2.5,2.5 z" />
      <circle
         cx="444.38889"
         cy="200.81502"
         r="2.5"
         id="circle182"
         sodipodi:cx="444.38889"
         sodipodi:cy="200.81502"
         sodipodi:rx="2.5"
         sodipodi:ry="2.5"
         style="fill:#990099;stroke:none"
         d="m 446.88889,200.81502 c 0,1.38071 -1.11929,2.5 -2.5,2.5 -1.38072,0 -2.5,-1.11929 -2.5,-2.5 0,-1.38071 1.11928,-2.5 2.5,-2.5 1.38071,0 2.5,1.11929 2.5,2.5 z" />
      <circle
         cx="136.05556"
         cy="211.05107"
         r="2.5"
         id="circle184"
         sodipodi:cx="136.05556"
         sodipodi:cy="211.05107"
         sodipodi:rx="2.5"
         sodipodi:ry="2.5"
         style="fill:#0099c6;stroke:none"
         d="m 138.55556,211.05107 c 0,1.38071 -1.11929,2.5 -2.5,2.5 -1.38071,0 -2.5,-1.11929 -2.5,-2.5 0,-1.38071 1.11929,-2.5 2.5,-2.5 1.38071,0 2.5,1.11929 2.5,2.5 z" />
      <circle
         cx="156.61111"
         cy="206.64903"
         r="2.5"
         id="circle186"
         sodipodi:cx="156.61111"
         sodipodi:cy="206.64903"
         sodipodi:rx="2.5"
         sodipodi:ry="2.5"
         style="fill:#0099c6;stroke:none"
         d="m 159.11111,206.64903 c 0,1.38071 -1.11928,2.5 -2.5,2.5 -1.38071,0 -2.5,-1.11929 -2.5,-2.5 0,-1.38071 1.11929,-2.5 2.5,-2.5 1.38072,0 2.5,1.11929 2.5,2.5 z" />
      <circle
         cx="197.72223"
         cy="214.19633"
         r="2.5"
         id="circle188"
         sodipodi:cx="197.72223"
         sodipodi:cy="214.19633"
         sodipodi:rx="2.5"
         sodipodi:ry="2.5"
         style="fill:#0099c6;stroke:none"
         d="m 200.22223,214.19633 c 0,1.38072 -1.11929,2.5 -2.5,2.5 -1.38071,0 -2.5,-1.11928 -2.5,-2.5 0,-1.38071 1.11929,-2.5 2.5,-2.5 1.38071,0 2.5,1.11929 2.5,2.5 z" />
      <circle
         cx="279.94446"
         cy="217.12828"
         r="2.5"
         id="circle190"
         sodipodi:cx="279.94446"
         sodipodi:cy="217.12828"
         sodipodi:rx="2.5"
         sodipodi:ry="2.5"
         style="fill:#0099c6;stroke:none"
         d="m 282.44446,217.12828 c 0,1.38071 -1.11929,2.5 -2.5,2.5 -1.38071,0 -2.5,-1.11929 -2.5,-2.5 0,-1.38071 1.11929,-2.5 2.5,-2.5 1.38071,0 2.5,1.11929 2.5,2.5 z" />
      <circle
         cx="444.38889"
         cy="226.31049"
         r="2.5"
         id="circle192"
         sodipodi:cx="444.38889"
         sodipodi:cy="226.31049"
         sodipodi:rx="2.5"
         sodipodi:ry="2.5"
         style="fill:#0099c6;stroke:none"
         d="m 446.88889,226.31049 c 0,1.38071 -1.11929,2.5 -2.5,2.5 -1.38072,0 -2.5,-1.11929 -2.5,-2.5 0,-1.38072 1.11928,-2.5 2.5,-2.5 1.38071,0 2.5,1.11928 2.5,2.5 z" />
      <circle
         cx="136.05556"
         cy="220.50877"
         r="2.5"
         id="circle194"
         sodipodi:cx="136.05556"
         sodipodi:cy="220.50877"
         sodipodi:rx="2.5"
         sodipodi:ry="2.5"
         style="fill:#dd4477;stroke:none"
         d="m 138.55556,220.50877 c 0,1.38072 -1.11929,2.5 -2.5,2.5 -1.38071,0 -2.5,-1.11928 -2.5,-2.5 0,-1.38071 1.11929,-2.5 2.5,-2.5 1.38071,0 2.5,1.11929 2.5,2.5 z" />
      <circle
         cx="156.61111"
         cy="231.20944"
         r="2.5"
         id="circle196"
         sodipodi:cx="156.61111"
         sodipodi:cy="231.20944"
         sodipodi:rx="2.5"
         sodipodi:ry="2.5"
         style="fill:#dd4477;stroke:none"
         d="m 159.11111,231.20944 c 0,1.38071 -1.11928,2.5 -2.5,2.5 -1.38071,0 -2.5,-1.11929 -2.5,-2.5 0,-1.38071 1.11929,-2.5 2.5,-2.5 1.38072,0 2.5,1.11929 2.5,2.5 z" />
      <circle
         cx="197.72223"
         cy="240.4836"
         r="2.5"
         id="circle198"
         sodipodi:cx="197.72223"
         sodipodi:cy="240.4836"
         sodipodi:rx="2.5"
         sodipodi:ry="2.5"
         style="fill:#dd4477;stroke:none"
         d="m 200.22223,240.4836 c 0,1.38071 -1.11929,2.5 -2.5,2.5 -1.38071,0 -2.5,-1.11929 -2.5,-2.5 0,-1.38072 1.11929,-2.5 2.5,-2.5 1.38071,0 2.5,1.11928 2.5,2.5 z" />
      <circle
         cx="279.94446"
         cy="241.21054"
         r="2.5"
         id="circle200"
         sodipodi:cx="279.94446"
         sodipodi:cy="241.21054"
         sodipodi:rx="2.5"
         sodipodi:ry="2.5"
         style="fill:#dd4477;stroke:none"
         d="m 282.44446,241.21054 c 0,1.38071 -1.11929,2.5 -2.5,2.5 -1.38071,0 -2.5,-1.11929 -2.5,-2.5 0,-1.38071 1.11929,-2.5 2.5,-2.5 1.38071,0 2.5,1.11929 2.5,2.5 z" />
      <circle
         cx="444.38889"
         cy="257.04565"
         r="2.5"
         id="circle202"
         sodipodi:cx="444.38889"
         sodipodi:cy="257.04565"
         sodipodi:rx="2.5"
         sodipodi:ry="2.5"
         style="fill:#dd4477;stroke:none"
         d="m 446.88889,257.04565 c 0,1.38072 -1.11929,2.5 -2.5,2.5 -1.38072,0 -2.5,-1.11928 -2.5,-2.5 0,-1.38071 1.11928,-2.5 2.5,-2.5 1.38071,0 2.5,1.11929 2.5,2.5 z" />
    </g>
    <g
       id="g204">
      <g
         id="g206">
        <text
           x="115.5"
           y="317.20001"
           font-size="12"
           id="text208"
           style="font-size:12px;text-anchor:middle;fill:#444444;stroke:none;font-family:Arial">0</text>
      </g>
      <g
         id="g210">
        <text
           x="156.61111"
           y="317.20001"
           font-size="12"
           id="text212"
           style="font-size:12px;text-anchor:middle;fill:#444444;stroke:none;font-family:Arial">4</text>
      </g>
      <g
         id="g214">
        <text
           x="197.72223"
           y="317.20001"
           font-size="12"
           id="text216"
           style="font-size:12px;text-anchor:middle;fill:#444444;stroke:none;font-family:Arial">8</text>
      </g>
      <g
         id="g218">
        <text
           x="238.83333"
           y="317.20001"
           font-size="12"
           id="text220"
           style="font-size:12px;text-anchor:middle;fill:#444444;stroke:none;font-family:Arial">12</text>
      </g>
      <g
         id="g222">
        <text
           x="279.94446"
           y="317.20001"
           font-size="12"
           id="text224"
           style="font-size:12px;text-anchor:middle;fill:#444444;stroke:none;font-family:Arial">16</text>
      </g>
      <g
         id="g226">
        <text
           x="321.05554"
           y="317.20001"
           font-size="12"
           id="text228"
           style="font-size:12px;text-anchor:middle;fill:#444444;stroke:none;font-family:Arial">20</text>
      </g>
      <g
         id="g230">
        <text
           x="362.16666"
           y="317.20001"
           font-size="12"
           id="text232"
           style="font-size:12px;text-anchor:middle;fill:#444444;stroke:none;font-family:Arial">24</text>
      </g>
      <g
         id="g234">
        <text
           x="403.27777"
           y="317.20001"
           font-size="12"
           id="text236"
           style="font-size:12px;text-anchor:middle;fill:#444444;stroke:none;font-family:Arial">28</text>
      </g>
      <g
         id="g238">
        <text
           x="444.38889"
           y="317.20001"
           font-size="12"
           id="text240"
           style="font-size:12px;text-anchor:middle;fill:#444444;stroke:none;font-family:Arial">32</text>
      </g>
      <g
         id="g242">
        <text
           x="485.5"
           y="317.20001"
           font-size="12"
           id="text244"
           style="font-size:12px;text-anchor:middle;fill:#444444;stroke:none;font-family:Arial">36</text>
      </g>
      <g
         id="g246">
        <text
           x="103"
           y="303.70001"
           font-size="12"
           id="text248"
           style="font-size:12px;text-anchor:end;fill:#444444;stroke:none;font-family:Arial">1</text>
      </g>
      <g
         id="g250">
        <text
           x="103"
           y="253.03334"
           font-size="12"
           id="text252"
           style="font-size:12px;text-anchor:end;fill:#444444;stroke:none;font-family:Arial">1.4</text>
      </g>
      <g
         id="g254">
        <text
           x="103"
           y="202.36667"
           font-size="12"
           id="text256"
           style="font-size:12px;text-anchor:end;fill:#444444;stroke:none;font-family:Arial">1.8</text>
      </g>
      <g
         id="g258">
        <text
           x="103"
           y="151.7"
           font-size="12"
           id="text260"
           style="font-size:12px;text-anchor:end;fill:#444444;stroke:none;font-family:Arial">2.2</text>
      </g>
      <g
         id="g262">
        <text
           x="103"
           y="101.03333"
           font-size="12"
           id="text264"
           style="font-size:12px;text-anchor:end;fill:#444444;stroke:none;font-family:Arial">2.6</text>
      </g>
    </g>
  </g>
  <g
     id="g266"
     transform="translate(-36.195508,-34.439453)">
    <g
       id="g268"
       transform="translate(0,-6)">
      <text
         x="300.5"
         y="351.29999"
         font-size="18"
         font-style="italic"
         id="text270"
         style="font-size:18px;font-style:italic;text-anchor:middle;fill:#222222;stroke:none;font-family:Arial">
        <tspan
           style="font-style:normal;-inkscape-font-specification:Arial"
           id="tspan3333">Distinct Keys Per Txn</tspan>
      </text>
    </g>
    <g
       id="g272"
       transform="translate(16,0)">
      <text
         x="49.299999"
         y="185.5"
         font-size="18"
         font-style="italic"
         transform="matrix(0,-1,1,0,-136.2,234.8)"
         id="text274"
         style="font-size:18px;font-style:italic;text-anchor:middle;fill:#222222;stroke:none;font-family:Arial">
        <tspan
           style="font-style:normal;-inkscape-font-specification:Arial"
           id="tspan3335">Performance (million ops/sec)</tspan>
      </text>
    </g>
  </g>
  <g
     id="g276"
     transform="translate(-36.195508,-34.439453)" />
</svg>
