<?xml version="1.0" encoding="UTF-8" standalone="no"?>
<svg
   xmlns:dc="http://purl.org/dc/elements/1.1/"
   xmlns:cc="http://creativecommons.org/ns#"
   xmlns:rdf="http://www.w3.org/1999/02/22-rdf-syntax-ns#"
   xmlns:svg="http://www.w3.org/2000/svg"
   xmlns="http://www.w3.org/2000/svg"
   xmlns:sodipodi="http://sodipodi.sourceforge.net/DTD/sodipodi-0.dtd"
   xmlns:inkscape="http://www.inkscape.org/namespaces/inkscape"
   width="537.8045"
   height="330.57147"
   style="overflow:hidden"
   id="svg2"
   version="1.1"
   inkscape:version="0.48.3.1 r9886"
   sodipodi:docname="threads.svg">
  <metadata
     id="metadata228">
    <rdf:RDF>
      <cc:Work
         rdf:about="">
        <dc:format>image/svg+xml</dc:format>
        <dc:type
           rdf:resource="http://purl.org/dc/dcmitype/StillImage" />
      </cc:Work>
    </rdf:RDF>
  </metadata>
  <sodipodi:namedview
     pagecolor="#ffffff"
     bordercolor="#666666"
     borderopacity="1"
     objecttolerance="10"
     gridtolerance="10"
     guidetolerance="10"
     inkscape:pageopacity="0"
     inkscape:pageshadow="2"
     inkscape:window-width="1859"
     inkscape:window-height="1056"
     id="namedview226"
     showgrid="false"
     inkscape:zoom="1.3765012"
     inkscape:cx="298.21567"
     inkscape:cy="172.02078"
     inkscape:window-x="61"
     inkscape:window-y="24"
     inkscape:window-maximized="1"
     inkscape:current-layer="g220"
     fit-margin-top="0"
     fit-margin-left="0"
     fit-margin-right="0"
     fit-margin-bottom="0" />
  <defs
     id="defs">
    <clipPath
       id="_ABSTRACT_RENDERER_ID_467">
      <rect
         x="115"
         y="71"
         width="371"
         height="229"
         id="rect6" />
    </clipPath>
  </defs>
  <g
     id="g10"
     transform="translate(-52.195508,-14.939453)">
    <text
       x="115"
       y="29.5"
       font-size="20"
       font-weight="bold"
       id="text12"
       style="font-size:20px;font-weight:bold;text-anchor:start;fill:#000000;stroke:none;font-family:Arial">64 Ops per Txn, 8 Distinct Keys per</text>
    <text
       x="115"
       y="55.5"
       font-size="20"
       font-weight="bold"
       id="text14"
       style="font-size:20px;font-weight:bold;text-anchor:start;fill:#000000;stroke:none;font-family:Arial">Txn</text>
  </g>
  <g
     id="g16"
     transform="translate(-48.195508,-14.939453)">
    <rect
       x="500"
       y="71"
       width="86"
       height="188"
       id="rect18"
       style="fill:#ffffff;fill-opacity:0;stroke:none" />
    <g
       id="g20">
      <rect
         x="500"
         y="71"
         width="86"
         height="14"
         id="rect22"
         style="fill:#ffffff;fill-opacity:0;stroke:none" />
      <g
         id="g24">
        <text
           x="519"
           y="82.900002"
           font-size="14"
           id="text26"
           style="font-size:14px;text-anchor:start;fill:#222222;stroke:none;font-family:Arial">HLE</text>
      </g>
      <rect
         x="500"
         y="71"
         width="14"
         height="14"
         id="rect28"
         style="fill:#3c78d8;stroke:none" />
    </g>
    <g
       id="g30">
      <rect
         x="500"
         y="94"
         width="86"
         height="14"
         id="rect32"
         style="fill:#ffffff;fill-opacity:0;stroke:none" />
      <g
         id="g34">
        <text
           x="519"
           y="105.9"
           font-size="14"
           id="text36"
           style="font-size:14px;text-anchor:start;fill:#222222;stroke:none;font-family:Arial">RTM</text>
      </g>
      <rect
         x="500"
         y="94"
         width="14"
         height="14"
         id="rect38"
         style="fill:#dc3912;stroke:none" />
    </g>
    <g
       id="g40">
      <rect
         x="500"
         y="117"
         width="86"
         height="14"
         id="rect42"
         style="fill:#ffffff;fill-opacity:0;stroke:none" />
      <g
         id="g44">
        <text
           x="519"
           y="128.89999"
           font-size="14"
           id="text46"
           style="font-size:14px;text-anchor:start;fill:#222222;stroke:none;font-family:Arial">Lock table</text>
      </g>
      <rect
         x="500"
         y="117"
         width="14"
         height="14"
         id="rect48"
         style="fill:#ff9900;stroke:none" />
    </g>
    <g
       id="g50">
      <rect
         x="500"
         y="140"
         width="86"
         height="14"
         id="rect52"
         style="fill:#ffffff;fill-opacity:0;stroke:none" />
      <g
         id="g54">
        <text
           x="519"
           y="151.89999"
           font-size="14"
           id="text56"
           style="font-size:14px;text-anchor:start;fill:#222222;stroke:none;font-family:Arial">Spin</text>
      </g>
      <rect
         x="500"
         y="140"
         width="14"
         height="14"
         id="rect58"
         style="fill:#6aa84f;stroke:none" />
    </g>
    <g
       id="g60">
      <rect
         x="500"
         y="163"
         width="86"
         height="32"
         id="rect62"
         style="fill:#ffffff;fill-opacity:0;stroke:none" />
      <g
         id="g64">
        <text
           x="519"
           y="174.89999"
           font-size="14"
           id="text66"
           style="font-size:14px;text-anchor:start;fill:#222222;stroke:none;font-family:Arial">Simple</text>
        <text
           x="519"
           y="192.89999"
           font-size="14"
           id="text68"
           style="font-size:14px;text-anchor:start;fill:#222222;stroke:none;font-family:Arial">spin</text>
      </g>
      <rect
         x="500"
         y="163"
         width="14"
         height="14"
         id="rect70"
         style="fill:#674ea7;stroke:none" />
    </g>
    <g
       id="g72">
      <rect
         x="500"
         y="204"
         width="86"
         height="32"
         id="rect74"
         style="fill:#ffffff;fill-opacity:0;stroke:none" />
      <g
         id="g76">
        <text
           x="519"
           y="215.89999"
           font-size="14"
           id="text78"
           style="font-size:14px;text-anchor:start;fill:#222222;stroke:none;font-family:Arial">Simple</text>
        <text
           x="519"
           y="233.89999"
           font-size="14"
           id="text80"
           style="font-size:14px;text-anchor:start;fill:#222222;stroke:none;font-family:Arial">RTM</text>
      </g>
      <rect
         x="500"
         y="204"
         width="14"
         height="14"
         id="rect82"
         style="fill:#3d85c6;stroke:none" />
    </g>
    <g
       id="g84">
      <rect
         x="500"
         y="245"
         width="86"
         height="14"
         id="rect86"
         style="fill:#ffffff;fill-opacity:0;stroke:none" />
      <g
         id="g88">
        <text
           x="519"
           y="256.89999"
           font-size="14"
           id="text90"
           style="font-size:14px;text-anchor:start;fill:#222222;stroke:none;font-family:Arial">Baseline</text>
      </g>
      <rect
         x="500"
         y="245"
         width="14"
         height="14"
         id="rect92"
         style="fill:#dd4477;stroke:none" />
    </g>
  </g>
  <g
     id="g94"
     transform="translate(-52.195508,-14.939453)">
    <rect
       x="115"
       y="71"
       width="371"
       height="229"
       id="rect96"
       style="fill:#ffffff;fill-opacity:0;stroke:none" />
    <g
       clip-path="url(https://docs.google.com/spreadsheet/ccc?key=0AmZyP9czufnudDBOWXg5WUNKT1FiWDI3MHN1RkdHS2c&amp;usp=drive_web#_ABSTRACT_RENDERER_ID_467)"
       id="g98">
      <g
         id="g100">
        <rect
           x="115"
           y="299"
           width="371"
           height="1"
           id="rect102"
           style="fill:#cccccc;stroke:none" />
        <rect
           x="115"
           y="223"
           width="371"
           height="1"
           id="rect104"
           style="fill:#cccccc;stroke:none" />
        <rect
           x="115"
           y="147"
           width="371"
           height="1"
           id="rect106"
           style="fill:#cccccc;stroke:none" />
        <rect
           x="115"
           y="71"
           width="371"
           height="1"
           id="rect108"
           style="fill:#cccccc;stroke:none" />
      </g>
      <g
         id="g110">
        <rect
           x="115"
           y="71"
           width="1"
           height="229"
           id="rect112"
           style="fill:#333333;stroke:none" />
        <rect
           x="115"
           y="299"
           width="371"
           height="1"
           id="rect114"
           style="fill:#333333;stroke:none" />
      </g>
      <g
         id="g116">
        <path
           d="M 115.5,144.18944 238.83333,85.172704 485.5,236.99137"
           id="path118"
           inkscape:connector-curvature="0"
           style="fill:none;stroke:#3c78d8;stroke-width:1" />
        <path
           d="M 115.5,140.4051 238.83333,97.242112 485.5,121.46802"
           id="path120"
           inkscape:connector-curvature="0"
           style="fill:none;stroke:#dc3912;stroke-width:2" />
        <path
           d="M 115.5,140.78145 238.83333,100.66956 485.5,132.06182"
           id="path122"
           inkscape:connector-curvature="0"
           style="fill:none;stroke:#ff9900;stroke-width:2" />
        <path
           d="M 115.5,127.90477 238.83333,90.815096 485.5,285.70585"
           id="path124"
           inkscape:connector-curvature="0"
           style="fill:none;stroke:#6aa84f;stroke-width:1" />
        <path
           d="M 115.5,142.27606 238.83333,165.19538 485.5,250.34457"
           id="path126"
           inkscape:connector-curvature="0"
           style="fill:none;stroke:#674ea7;stroke-width:1" />
        <path
           d="M 115.5,166.70003 238.83333,211.70161 485.5,208.18022"
           id="path128"
           inkscape:connector-curvature="0"
           style="fill:none;stroke:#3d85c6;stroke-width:1" />
        <path
           d="m 115.5,223.47902 123.33333,0 L 485.5,216.67596"
           id="path130"
           inkscape:connector-curvature="0"
           style="fill:none;stroke:#dd4477;stroke-width:2" />
      </g>
    </g>
    <g
       id="g132">
      <circle
         cx="115.5"
         cy="144.18944"
         r="2.5"
         id="circle134"
         sodipodi:cx="115.5"
         sodipodi:cy="144.18944"
         sodipodi:rx="2.5"
         sodipodi:ry="2.5"
         style="fill:#3c78d8;stroke:none"
         d="m 118,144.18944 c 0,1.38071 -1.11929,2.5 -2.5,2.5 -1.38071,0 -2.5,-1.11929 -2.5,-2.5 0,-1.38071 1.11929,-2.5 2.5,-2.5 1.38071,0 2.5,1.11929 2.5,2.5 z" />
      <circle
         cx="238.83333"
         cy="85.172707"
         r="2.5"
         id="circle136"
         sodipodi:cx="238.83333"
         sodipodi:cy="85.172707"
         sodipodi:rx="2.5"
         sodipodi:ry="2.5"
         style="fill:#3c78d8;stroke:none"
         d="m 241.33333,85.172707 c 0,1.380711 -1.11929,2.5 -2.5,2.5 -1.38071,0 -2.5,-1.119289 -2.5,-2.5 0,-1.380712 1.11929,-2.5 2.5,-2.5 1.38071,0 2.5,1.119288 2.5,2.5 z" />
      <circle
         cx="485.5"
         cy="236.99136"
         r="2.5"
         id="circle138"
         sodipodi:cx="485.5"
         sodipodi:cy="236.99136"
         sodipodi:rx="2.5"
         sodipodi:ry="2.5"
         style="fill:#3c78d8;stroke:none"
         d="m 488,236.99136 c 0,1.38072 -1.11929,2.5 -2.5,2.5 -1.38071,0 -2.5,-1.11928 -2.5,-2.5 0,-1.38071 1.11929,-2.5 2.5,-2.5 1.38071,0 2.5,1.11929 2.5,2.5 z" />
      <circle
         cx="115.5"
         cy="140.40509"
         r="2.5"
         id="circle140"
         sodipodi:cx="115.5"
         sodipodi:cy="140.40509"
         sodipodi:rx="2.5"
         sodipodi:ry="2.5"
         style="fill:#dc3912;stroke:none"
         d="m 118,140.40509 c 0,1.38071 -1.11929,2.5 -2.5,2.5 -1.38071,0 -2.5,-1.11929 -2.5,-2.5 0,-1.38071 1.11929,-2.5 2.5,-2.5 1.38071,0 2.5,1.11929 2.5,2.5 z" />
      <circle
         cx="238.83333"
         cy="97.242111"
         r="2.5"
         id="circle142"
         sodipodi:cx="238.83333"
         sodipodi:cy="97.242111"
         sodipodi:rx="2.5"
         sodipodi:ry="2.5"
         style="fill:#dc3912;stroke:none"
         d="m 241.33333,97.242111 c 0,1.380712 -1.11929,2.5 -2.5,2.5 -1.38071,0 -2.5,-1.119288 -2.5,-2.5 0,-1.380712 1.11929,-2.5 2.5,-2.5 1.38071,0 2.5,1.119288 2.5,2.5 z" />
      <circle
         cx="485.5"
         cy="121.46803"
         r="2.5"
         id="circle144"
         sodipodi:cx="485.5"
         sodipodi:cy="121.46803"
         sodipodi:rx="2.5"
         sodipodi:ry="2.5"
         style="fill:#dc3912;stroke:none"
         d="m 488,121.46803 c 0,1.38071 -1.11929,2.5 -2.5,2.5 -1.38071,0 -2.5,-1.11929 -2.5,-2.5 0,-1.38071 1.11929,-2.5 2.5,-2.5 1.38071,0 2.5,1.11929 2.5,2.5 z" />
      <circle
         cx="115.5"
         cy="140.78145"
         r="2.5"
         id="circle146"
         sodipodi:cx="115.5"
         sodipodi:cy="140.78145"
         sodipodi:rx="2.5"
         sodipodi:ry="2.5"
         style="fill:#ff9900;stroke:none"
         d="m 118,140.78145 c 0,1.38071 -1.11929,2.5 -2.5,2.5 -1.38071,0 -2.5,-1.11929 -2.5,-2.5 0,-1.38071 1.11929,-2.5 2.5,-2.5 1.38071,0 2.5,1.11929 2.5,2.5 z" />
      <circle
         cx="238.83333"
         cy="100.66956"
         r="2.5"
         id="circle148"
         sodipodi:cx="238.83333"
         sodipodi:cy="100.66956"
         sodipodi:rx="2.5"
         sodipodi:ry="2.5"
         style="fill:#ff9900;stroke:none"
         d="m 241.33333,100.66956 c 0,1.38072 -1.11929,2.5 -2.5,2.5 -1.38071,0 -2.5,-1.11928 -2.5,-2.5 0,-1.380709 1.11929,-2.499997 2.5,-2.499997 1.38071,0 2.5,1.119288 2.5,2.499997 z" />
      <circle
         cx="485.5"
         cy="132.06181"
         r="2.5"
         id="circle150"
         sodipodi:cx="485.5"
         sodipodi:cy="132.06181"
         sodipodi:rx="2.5"
         sodipodi:ry="2.5"
         style="fill:#ff9900;stroke:none"
         d="m 488,132.06181 c 0,1.38072 -1.11929,2.5 -2.5,2.5 -1.38071,0 -2.5,-1.11928 -2.5,-2.5 0,-1.38071 1.11929,-2.5 2.5,-2.5 1.38071,0 2.5,1.11929 2.5,2.5 z" />
      <circle
         cx="115.5"
         cy="127.90477"
         r="2.5"
         id="circle152"
         sodipodi:cx="115.5"
         sodipodi:cy="127.90477"
         sodipodi:rx="2.5"
         sodipodi:ry="2.5"
         style="fill:#6aa84f;stroke:none"
         d="m 118,127.90477 c 0,1.38071 -1.11929,2.5 -2.5,2.5 -1.38071,0 -2.5,-1.11929 -2.5,-2.5 0,-1.38071 1.11929,-2.5 2.5,-2.5 1.38071,0 2.5,1.11929 2.5,2.5 z" />
      <circle
         cx="238.83333"
         cy="90.815094"
         r="2.5"
         id="circle154"
         sodipodi:cx="238.83333"
         sodipodi:cy="90.815094"
         sodipodi:rx="2.5"
         sodipodi:ry="2.5"
         style="fill:#6aa84f;stroke:none"
         d="m 241.33333,90.815094 c 0,1.380712 -1.11929,2.5 -2.5,2.5 -1.38071,0 -2.5,-1.119288 -2.5,-2.5 0,-1.380712 1.11929,-2.5 2.5,-2.5 1.38071,0 2.5,1.119288 2.5,2.5 z" />
      <circle
         cx="485.5"
         cy="285.70584"
         r="2.5"
         id="circle156"
         sodipodi:cx="485.5"
         sodipodi:cy="285.70584"
         sodipodi:rx="2.5"
         sodipodi:ry="2.5"
         style="fill:#6aa84f;stroke:none"
         d="m 488,285.70584 c 0,1.38071 -1.11929,2.5 -2.5,2.5 -1.38071,0 -2.5,-1.11929 -2.5,-2.5 0,-1.38071 1.11929,-2.5 2.5,-2.5 1.38071,0 2.5,1.11929 2.5,2.5 z" />
      <circle
         cx="115.5"
         cy="142.27606"
         r="2.5"
         id="circle158"
         sodipodi:cx="115.5"
         sodipodi:cy="142.27606"
         sodipodi:rx="2.5"
         sodipodi:ry="2.5"
         style="fill:#674ea7;stroke:none"
         d="m 118,142.27606 c 0,1.38071 -1.11929,2.5 -2.5,2.5 -1.38071,0 -2.5,-1.11929 -2.5,-2.5 0,-1.38071 1.11929,-2.5 2.5,-2.5 1.38071,0 2.5,1.11929 2.5,2.5 z" />
      <circle
         cx="238.83333"
         cy="165.19539"
         r="2.5"
         id="circle160"
         sodipodi:cx="238.83333"
         sodipodi:cy="165.19539"
         sodipodi:rx="2.5"
         sodipodi:ry="2.5"
         style="fill:#674ea7;stroke:none"
         d="m 241.33333,165.19539 c 0,1.38071 -1.11929,2.5 -2.5,2.5 -1.38071,0 -2.5,-1.11929 -2.5,-2.5 0,-1.38071 1.11929,-2.5 2.5,-2.5 1.38071,0 2.5,1.11929 2.5,2.5 z" />
      <circle
         cx="485.5"
         cy="250.34457"
         r="2.5"
         id="circle162"
         sodipodi:cx="485.5"
         sodipodi:cy="250.34457"
         sodipodi:rx="2.5"
         sodipodi:ry="2.5"
         style="fill:#674ea7;stroke:none"
         d="m 488,250.34457 c 0,1.38072 -1.11929,2.5 -2.5,2.5 -1.38071,0 -2.5,-1.11928 -2.5,-2.5 0,-1.38071 1.11929,-2.5 2.5,-2.5 1.38071,0 2.5,1.11929 2.5,2.5 z" />
      <circle
         cx="115.5"
         cy="166.70003"
         r="2.5"
         id="circle164"
         sodipodi:cx="115.5"
         sodipodi:cy="166.70003"
         sodipodi:rx="2.5"
         sodipodi:ry="2.5"
         style="fill:#3d85c6;stroke:none"
         d="m 118,166.70003 c 0,1.38071 -1.11929,2.5 -2.5,2.5 -1.38071,0 -2.5,-1.11929 -2.5,-2.5 0,-1.38071 1.11929,-2.5 2.5,-2.5 1.38071,0 2.5,1.11929 2.5,2.5 z" />
      <circle
         cx="238.83333"
         cy="211.70161"
         r="2.5"
         id="circle166"
         sodipodi:cx="238.83333"
         sodipodi:cy="211.70161"
         sodipodi:rx="2.5"
         sodipodi:ry="2.5"
         style="fill:#3d85c6;stroke:none"
         d="m 241.33333,211.70161 c 0,1.38072 -1.11929,2.5 -2.5,2.5 -1.38071,0 -2.5,-1.11928 -2.5,-2.5 0,-1.38071 1.11929,-2.5 2.5,-2.5 1.38071,0 2.5,1.11929 2.5,2.5 z" />
      <circle
         cx="485.5"
         cy="208.18022"
         r="2.5"
         id="circle168"
         sodipodi:cx="485.5"
         sodipodi:cy="208.18022"
         sodipodi:rx="2.5"
         sodipodi:ry="2.5"
         style="fill:#3d85c6;stroke:none"
         d="m 488,208.18022 c 0,1.38071 -1.11929,2.5 -2.5,2.5 -1.38071,0 -2.5,-1.11929 -2.5,-2.5 0,-1.38071 1.11929,-2.5 2.5,-2.5 1.38071,0 2.5,1.11929 2.5,2.5 z" />
      <circle
         cx="115.5"
         cy="223.47902"
         r="2.5"
         id="circle170"
         sodipodi:cx="115.5"
         sodipodi:cy="223.47902"
         sodipodi:rx="2.5"
         sodipodi:ry="2.5"
         style="fill:#dd4477;stroke:none"
         d="m 118,223.47902 c 0,1.38071 -1.11929,2.5 -2.5,2.5 -1.38071,0 -2.5,-1.11929 -2.5,-2.5 0,-1.38071 1.11929,-2.5 2.5,-2.5 1.38071,0 2.5,1.11929 2.5,2.5 z" />
      <circle
         cx="238.83333"
         cy="223.47902"
         r="2.5"
         id="circle172"
         sodipodi:cx="238.83333"
         sodipodi:cy="223.47902"
         sodipodi:rx="2.5"
         sodipodi:ry="2.5"
         style="fill:#dd4477;stroke:none"
         d="m 241.33333,223.47902 c 0,1.38071 -1.11929,2.5 -2.5,2.5 -1.38071,0 -2.5,-1.11929 -2.5,-2.5 0,-1.38071 1.11929,-2.5 2.5,-2.5 1.38071,0 2.5,1.11929 2.5,2.5 z" />
      <circle
         cx="485.5"
         cy="216.67596"
         r="2.5"
         id="circle174"
         sodipodi:cx="485.5"
         sodipodi:cy="216.67596"
         sodipodi:rx="2.5"
         sodipodi:ry="2.5"
         style="fill:#dd4477;stroke:none"
         d="m 488,216.67596 c 0,1.38072 -1.11929,2.5 -2.5,2.5 -1.38071,0 -2.5,-1.11928 -2.5,-2.5 0,-1.38071 1.11929,-2.5 2.5,-2.5 1.38071,0 2.5,1.11929 2.5,2.5 z" />
    </g>
    <g
       id="g176">
      <g
         id="g178">
        <text
           x="177.16667"
           y="317.20001"
           font-size="12"
           id="text180"
           style="font-size:12px;text-anchor:middle;fill:#444444;stroke:none;font-family:Arial">3</text>
      </g>
      <g
         id="g182">
        <text
           x="238.83333"
           y="317.20001"
           font-size="12"
           id="text184"
           style="font-size:12px;text-anchor:middle;fill:#444444;stroke:none;font-family:Arial">4</text>
      </g>
      <g
         id="g186">
        <text
           x="300.5"
           y="317.20001"
           font-size="12"
           id="text188"
           style="font-size:12px;text-anchor:middle;fill:#444444;stroke:none;font-family:Arial">5</text>
      </g>
      <g
         id="g190">
        <text
           x="362.16666"
           y="317.20001"
           font-size="12"
           id="text192"
           style="font-size:12px;text-anchor:middle;fill:#444444;stroke:none;font-family:Arial">6</text>
      </g>
      <g
         id="g194">
        <text
           x="423.83334"
           y="317.20001"
           font-size="12"
           id="text196"
           style="font-size:12px;text-anchor:middle;fill:#444444;stroke:none;font-family:Arial">7</text>
      </g>
      <g
         id="g198">
        <text
           x="103"
           y="303.70001"
           font-size="12"
           id="text200"
           style="font-size:12px;text-anchor:end;fill:#444444;stroke:none;font-family:Arial">1</text>
      </g>
      <g
         id="g202">
        <text
           x="103"
           y="227.7"
           font-size="12"
           id="text204"
           style="font-size:12px;text-anchor:end;fill:#444444;stroke:none;font-family:Arial">1.5</text>
      </g>
      <g
         id="g206">
        <text
           x="103"
           y="151.7"
           font-size="12"
           id="text208"
           style="font-size:12px;text-anchor:end;fill:#444444;stroke:none;font-family:Arial">2</text>
      </g>
      <g
         id="g210">
        <text
           x="103"
           y="75.699997"
           font-size="12"
           id="text212"
           style="font-size:12px;text-anchor:end;fill:#444444;stroke:none;font-family:Arial">2.5</text>
      </g>
    </g>
  </g>
  <g
     id="g214"
     transform="translate(-52.195508,-14.939453)">
    <g
       id="g216"
       transform="translate(0,-6)">
      <text
         x="300.5"
         y="351.29999"
         font-size="18"
         id="text218"
         style="font-size:18px;text-anchor:middle;fill:#222222;stroke:none;font-family:Arial">Threads</text>
    </g>
    <g
       id="g220"
       transform="translate(16,0)">
      <text
         x="49.299999"
         y="185.5"
         font-size="18"
         transform="matrix(0,-1,1,0,-136.2,234.8)"
         id="text222"
         style="font-size:18px;text-anchor:middle;fill:#222222;stroke:none;font-family:Arial">Performance (million ops/sec)</text>
    </g>
  </g>
  <g
     id="g224"
     transform="translate(-52.195508,-14.939453)" />
</svg>
